<svg width="776" height="459" viewBox="0 0 776 459" fill="none" xmlns="http://www.w3.org/2000/svg">
<g opacity="0.66" filter="url(#filter0_f_4642_6342)">
<path d="M151.262 365.643L151.227 365.642C125.504 365.374 102.191 358.305 82.1129 343.941L82.0741 343.914L82.0355 343.886C62.3882 329.693 47.5197 310.411 37.1964 286.821C26.8402 263.155 21.9316 236.601 21.9316 207.587C21.9316 178.652 27.1222 152.209 38.0934 128.744L38.1041 128.721L38.1148 128.699C49.0948 105.363 64.5448 86.4152 84.6358 72.5706C105.098 58.4701 128.522 51.5923 154.181 51.5923C172.786 51.5923 190.024 55.1946 205.19 63.2302C215.313 68.5148 220.203 72.8371 221.607 74.1895C221.889 74.462 221.995 74.8584 221.909 75.2417L199.705 175.214C199.425 176.473 197.476 176.516 197.113 175.278C194.458 166.225 187.786 147.636 175.138 135.746L175.023 135.66L174.909 135.573C169.836 131.694 163.312 129.329 154.181 129.329C144.778 129.329 136.96 132.066 129.938 137.61C122.499 143.484 116.071 152.06 111.121 164.33C106.244 176.422 103.55 190.94 103.55 208.274C103.55 225.196 106.087 239.787 110.785 252.329C115.49 264.777 121.666 273.614 128.825 279.773C135.293 285.234 142.532 287.907 151.441 287.907C160.018 287.907 166.592 285.652 172.062 281.613C172.108 281.578 172.152 281.541 172.193 281.5C192.665 261.005 193.371 209.381 193.396 205.843C193.397 205.707 193.419 205.586 193.465 205.458L247.328 52.3951C247.497 51.9141 247.952 51.5923 248.462 51.5923H324.691C325.516 51.5923 326.095 52.4044 325.827 53.1845L245.565 286.821C232.778 330.446 222.045 343.941 203.193 354.581C187.602 362.32 170.11 365.776 151.296 365.643L151.262 365.643Z" fill="#191919"/>
</g>
<g opacity="0.66" filter="url(#filter1_f_4642_6342)">
<path d="M291.673 214.304C291.988 213.174 293.569 213.119 293.962 214.223L346.891 362.73C347.17 363.513 346.59 364.335 345.759 364.335H264.86C264.32 364.335 263.847 363.976 263.702 363.457L256.979 339.353C256.92 339.141 256.92 338.918 256.979 338.707L291.673 214.304Z" fill="#191919"/>
</g>
<g opacity="0.66" filter="url(#filter2_f_4642_6342)">
<path d="M376.674 50.8393L440.721 271.04H443.161L507.209 50.8393H602.974L499.889 363.146H383.994L280.908 50.8393H376.674Z" fill="#191919"/>
</g>
<g filter="url(#filter3_dddddddii_4642_6342)">
<path d="M182.93 365.643L182.895 365.642C157.172 365.374 133.859 358.305 113.781 343.941L113.742 343.914L113.703 343.886C94.0561 329.693 79.1877 310.411 68.8644 286.821C58.5082 263.155 53.5996 236.601 53.5996 207.587C53.5996 178.652 58.7902 152.209 69.7614 128.744L69.7721 128.721L69.7828 128.699C80.7628 105.363 96.2128 86.4152 116.304 72.5706C136.766 58.4701 160.19 51.5923 185.849 51.5923C204.454 51.5923 221.692 55.1946 236.858 63.2302C246.981 68.5148 251.871 72.8371 253.275 74.1895C253.557 74.462 253.663 74.8584 253.577 75.2417L231.373 175.214C231.093 176.473 229.144 176.516 228.781 175.278C226.126 166.225 219.454 147.636 206.806 135.746L206.69 135.66L206.577 135.573C201.504 131.694 194.98 129.329 185.849 129.329C176.446 129.329 168.628 132.066 161.606 137.61C154.167 143.484 147.739 152.06 142.789 164.33C137.912 176.422 135.218 190.94 135.218 208.274C135.218 225.196 137.755 239.787 142.453 252.329C147.158 264.777 153.334 273.614 160.492 279.773C166.961 285.234 174.2 287.907 183.109 287.907C191.686 287.907 198.26 285.652 203.73 281.613C203.776 281.578 203.82 281.541 203.861 281.5C224.333 261.005 225.039 209.381 225.064 205.843C225.064 205.707 225.087 205.586 225.133 205.458L278.996 52.3951C279.165 51.9141 279.62 51.5923 280.13 51.5923H356.359C357.184 51.5923 357.763 52.4044 357.495 53.1845L277.233 286.821C264.446 330.446 253.713 343.941 234.861 354.581C219.27 362.32 201.778 365.776 182.964 365.643L182.93 365.643Z" fill="#D5C387"/>
<g clip-path="url(#paint0_angular_4642_6342_clip_path)" data-figma-skip-parse="true"><g transform="matrix(-0.240895 0.0700692 -0.0679247 -0.233522 191.308 201.56)"><foreignObject x="-840.126" y="-840.126" width="1680.25" height="1680.25"><div xmlns="http://www.w3.org/1999/xhtml" style="background:conic-gradient(from 90deg,rgba(206, 191, 141, 1) 0deg,rgba(221, 207, 159, 1) 185.192deg,rgba(255, 248, 225, 1) 204.231deg,rgba(210, 191, 127, 1) 250.962deg,rgba(166, 150, 97, 1) 316.731deg,rgba(206, 191, 141, 1) 360deg);height:100%;width:100%;opacity:0.87"></div></foreignObject></g></g><path d="M182.93 365.643L182.895 365.642C157.172 365.374 133.859 358.305 113.781 343.941L113.742 343.914L113.703 343.886C94.0561 329.693 79.1877 310.411 68.8644 286.821C58.5082 263.155 53.5996 236.601 53.5996 207.587C53.5996 178.652 58.7902 152.209 69.7614 128.744L69.7721 128.721L69.7828 128.699C80.7628 105.363 96.2128 86.4152 116.304 72.5706C136.766 58.4701 160.19 51.5923 185.849 51.5923C204.454 51.5923 221.692 55.1946 236.858 63.2302C246.981 68.5148 251.871 72.8371 253.275 74.1895C253.557 74.462 253.663 74.8584 253.577 75.2417L231.373 175.214C231.093 176.473 229.144 176.516 228.781 175.278C226.126 166.225 219.454 147.636 206.806 135.746L206.69 135.66L206.577 135.573C201.504 131.694 194.98 129.329 185.849 129.329C176.446 129.329 168.628 132.066 161.606 137.61C154.167 143.484 147.739 152.06 142.789 164.33C137.912 176.422 135.218 190.94 135.218 208.274C135.218 225.196 137.755 239.787 142.453 252.329C147.158 264.777 153.334 273.614 160.492 279.773C166.961 285.234 174.2 287.907 183.109 287.907C191.686 287.907 198.26 285.652 203.73 281.613C203.776 281.578 203.82 281.541 203.861 281.5C224.333 261.005 225.039 209.381 225.064 205.843C225.064 205.707 225.087 205.586 225.133 205.458L278.996 52.3951C279.165 51.9141 279.62 51.5923 280.13 51.5923H356.359C357.184 51.5923 357.763 52.4044 357.495 53.1845L277.233 286.821C264.446 330.446 253.713 343.941 234.861 354.581C219.27 362.32 201.778 365.776 182.964 365.643L182.93 365.643Z" data-figma-gradient-fill="{&#34;type&#34;:&#34;GRADIENT_ANGULAR&#34;,&#34;stops&#34;:[{&#34;color&#34;:{&#34;r&#34;:0.80784314870834351,&#34;g&#34;:0.74901962280273438,&#34;b&#34;:0.55294120311737061,&#34;a&#34;:1.0},&#34;position&#34;:0.0},{&#34;color&#34;:{&#34;r&#34;:0.86666667461395264,&#34;g&#34;:0.81176471710205078,&#34;b&#34;:0.62352943420410156,&#34;a&#34;:1.0},&#34;position&#34;:0.51442307233810425},{&#34;color&#34;:{&#34;r&#34;:1.0,&#34;g&#34;:0.97379839420318604,&#34;b&#34;:0.88461536169052124,&#34;a&#34;:1.0},&#34;position&#34;:0.56730771064758301},{&#34;color&#34;:{&#34;r&#34;:0.82692307233810425,&#34;g&#34;:0.75251287221908569,&#34;b&#34;:0.50092452764511108,&#34;a&#34;:1.0},&#34;position&#34;:0.69711536169052124},{&#34;color&#34;:{&#34;r&#34;:0.65384614467620850,&#34;g&#34;:0.59214013814926147,&#34;b&#34;:0.38350591063499451,&#34;a&#34;:1.0},&#34;position&#34;:0.87980771064758301}],&#34;stopsVar&#34;:[{&#34;color&#34;:{&#34;r&#34;:0.80784314870834351,&#34;g&#34;:0.74901962280273438,&#34;b&#34;:0.55294120311737061,&#34;a&#34;:1.0},&#34;position&#34;:0.0},{&#34;color&#34;:{&#34;r&#34;:0.86666667461395264,&#34;g&#34;:0.81176471710205078,&#34;b&#34;:0.62352943420410156,&#34;a&#34;:1.0},&#34;position&#34;:0.51442307233810425},{&#34;color&#34;:{&#34;r&#34;:1.0,&#34;g&#34;:0.97379839420318604,&#34;b&#34;:0.88461536169052124,&#34;a&#34;:1.0},&#34;position&#34;:0.56730771064758301},{&#34;color&#34;:{&#34;r&#34;:0.82692307233810425,&#34;g&#34;:0.75251287221908569,&#34;b&#34;:0.50092452764511108,&#34;a&#34;:1.0},&#34;position&#34;:0.69711536169052124},{&#34;color&#34;:{&#34;r&#34;:0.65384614467620850,&#34;g&#34;:0.59214013814926147,&#34;b&#34;:0.38350591063499451,&#34;a&#34;:1.0},&#34;position&#34;:0.87980771064758301}],&#34;transform&#34;:{&#34;m00&#34;:-481.78924560546875,&#34;m01&#34;:-135.84938049316406,&#34;m02&#34;:500.12780761718750,&#34;m10&#34;:140.13830566406250,&#34;m11&#34;:-467.04421997070312,&#34;m12&#34;:365.01287841796875},&#34;opacity&#34;:0.87000000476837158,&#34;blendMode&#34;:&#34;NORMAL&#34;,&#34;visible&#34;:true}"/>
<path d="M182.93 365.643L182.895 365.642C157.172 365.374 133.859 358.305 113.781 343.941L113.742 343.914L113.703 343.886C94.0561 329.693 79.1877 310.411 68.8644 286.821C58.5082 263.155 53.5996 236.601 53.5996 207.587C53.5996 178.652 58.7902 152.209 69.7614 128.744L69.7721 128.721L69.7828 128.699C80.7628 105.363 96.2128 86.4152 116.304 72.5706C136.766 58.4701 160.19 51.5923 185.849 51.5923C204.454 51.5923 221.692 55.1946 236.858 63.2302C246.981 68.5148 251.871 72.8371 253.275 74.1895C253.557 74.462 253.663 74.8584 253.577 75.2417L231.373 175.214C231.093 176.473 229.144 176.516 228.781 175.278C226.126 166.225 219.454 147.636 206.806 135.746L206.69 135.66L206.577 135.573C201.504 131.694 194.98 129.329 185.849 129.329C176.446 129.329 168.628 132.066 161.606 137.61C154.167 143.484 147.739 152.06 142.789 164.33C137.912 176.422 135.218 190.94 135.218 208.274C135.218 225.196 137.755 239.787 142.453 252.329C147.158 264.777 153.334 273.614 160.492 279.773C166.961 285.234 174.2 287.907 183.109 287.907C191.686 287.907 198.26 285.652 203.73 281.613C203.776 281.578 203.82 281.541 203.861 281.5C224.333 261.005 225.039 209.381 225.064 205.843C225.064 205.707 225.087 205.586 225.133 205.458L278.996 52.3951C279.165 51.9141 279.62 51.5923 280.13 51.5923H356.359C357.184 51.5923 357.763 52.4044 357.495 53.1845L277.233 286.821C264.446 330.446 253.713 343.941 234.861 354.581C219.27 362.32 201.778 365.776 182.964 365.643L182.93 365.643Z" fill="url(#paint1_linear_4642_6342)" fill-opacity="0.46" style="mix-blend-mode:overlay"/>
<path d="M182.93 365.643L182.895 365.642C157.172 365.374 133.859 358.305 113.781 343.941L113.742 343.914L113.703 343.886C94.0561 329.693 79.1877 310.411 68.8644 286.821C58.5082 263.155 53.5996 236.601 53.5996 207.587C53.5996 178.652 58.7902 152.209 69.7614 128.744L69.7721 128.721L69.7828 128.699C80.7628 105.363 96.2128 86.4152 116.304 72.5706C136.766 58.4701 160.19 51.5923 185.849 51.5923C204.454 51.5923 221.692 55.1946 236.858 63.2302C246.981 68.5148 251.871 72.8371 253.275 74.1895C253.557 74.462 253.663 74.8584 253.577 75.2417L231.373 175.214C231.093 176.473 229.144 176.516 228.781 175.278C226.126 166.225 219.454 147.636 206.806 135.746L206.69 135.66L206.577 135.573C201.504 131.694 194.98 129.329 185.849 129.329C176.446 129.329 168.628 132.066 161.606 137.61C154.167 143.484 147.739 152.06 142.789 164.33C137.912 176.422 135.218 190.94 135.218 208.274C135.218 225.196 137.755 239.787 142.453 252.329C147.158 264.777 153.334 273.614 160.492 279.773C166.961 285.234 174.2 287.907 183.109 287.907C191.686 287.907 198.26 285.652 203.73 281.613C203.776 281.578 203.82 281.541 203.861 281.5C224.333 261.005 225.039 209.381 225.064 205.843C225.064 205.707 225.087 205.586 225.133 205.458L278.996 52.3951C279.165 51.9141 279.62 51.5923 280.13 51.5923H356.359C357.184 51.5923 357.763 52.4044 357.495 53.1845L277.233 286.821C264.446 330.446 253.713 343.941 234.861 354.581C219.27 362.32 201.778 365.776 182.964 365.643L182.93 365.643Z" fill="url(#paint2_radial_4642_6342)" fill-opacity="0.2" style="mix-blend-mode:lighten"/>
</g>
<g filter="url(#filter4_dddddddii_4642_6342)">
<path d="M307.925 214.304C308.24 213.174 309.821 213.119 310.214 214.223L363.143 362.73C363.422 363.513 362.842 364.335 362.011 364.335H281.112C280.572 364.335 280.099 363.976 279.954 363.457L273.231 339.353C273.172 339.141 273.172 338.918 273.231 338.707L307.925 214.304Z" fill="#D5C387"/>
<path d="M307.925 214.304C308.24 213.174 309.821 213.119 310.214 214.223L363.143 362.73C363.422 363.513 362.842 364.335 362.011 364.335H281.112C280.572 364.335 280.099 363.976 279.954 363.457L273.231 339.353C273.172 339.141 273.172 338.918 273.231 338.707L307.925 214.304Z" fill="url(#paint3_linear_4642_6342)" fill-opacity="0.46" style="mix-blend-mode:overlay"/>
<path d="M307.925 214.304C308.24 213.174 309.821 213.119 310.214 214.223L363.143 362.73C363.422 363.513 362.842 364.335 362.011 364.335H281.112C280.572 364.335 280.099 363.976 279.954 363.457L273.231 339.353C273.172 339.141 273.172 338.918 273.231 338.707L307.925 214.304Z" fill="url(#paint4_radial_4642_6342)" fill-opacity="0.2" style="mix-blend-mode:lighten"/>
</g>
<g opacity="0.8" style="mix-blend-mode:overlay">
<path d="M254.655 75.0167C254.712 74.7588 254.649 74.4907 254.475 74.2918C250.2 69.3932 240.711 63.6209 223.796 57.3595C223.105 57.1037 222.444 57.8017 222.706 58.4901C241.49 107.784 223.988 150.83 222.162 155.074C222.06 155.312 222.081 155.556 222.196 155.788C226.692 164.834 227.552 168.646 230.714 176.867C231.016 177.652 232.145 177.563 232.325 176.741L254.655 75.0167Z" fill="#211813"/>
</g>
<g opacity="0.76" style="mix-blend-mode:overlay">
<path d="M323.613 252.647C323.713 252.931 323.664 253.241 323.462 253.464C318.665 258.765 299.765 272.186 280.518 357.257C280.324 358.116 279.1 358.211 278.847 357.367L273.72 340.277C273.676 340.13 273.67 339.981 273.707 339.832C282.571 304.503 304.017 228.561 308.221 213.713C308.448 212.911 309.56 212.91 309.837 213.696L323.613 252.647Z" fill="#211813"/>
</g>
<g filter="url(#filter5_f_4642_6342)" style="mix-blend-mode:plus-lighter">
<ellipse cx="107.749" cy="3.72759" rx="107.749" ry="3.72759" transform="matrix(-0.307292 0.951615 0.951968 0.306199 344.387 80.4697)" fill="url(#paint5_radial_4642_6342)"/>
</g>
<g filter="url(#filter6_f_4642_6342)" style="mix-blend-mode:plus-lighter">
<ellipse cx="167.664" cy="8.97575" rx="167.664" ry="8.97575" transform="matrix(-0.307292 0.951615 0.951968 0.306199 358.291 26.5654)" fill="url(#paint6_radial_4642_6342)"/>
</g>
<g filter="url(#filter7_f_4642_6342)" style="mix-blend-mode:plus-lighter">
<path d="M248.535 74.1262C239.225 64.3692 220.032 54.6616 179.533 54.6616C128.908 54.6616 63.9379 92.6198 54.748 206.894" stroke="url(#paint7_linear_4642_6342)" stroke-width="6.27389" stroke-linecap="round" stroke-linejoin="round"/>
</g>
<g opacity="0.8" style="mix-blend-mode:multiply">
<path d="M308.157 52.1525C308.043 51.7991 307.715 51.5596 307.343 51.5596H280.718C280.089 51.5596 279.661 52.1877 279.928 52.7564C283.774 60.9439 306.375 109.763 320.898 156.55C321.152 157.366 322.316 157.348 322.546 156.525L331.393 124.862C331.438 124.7 331.435 124.529 331.384 124.37L308.157 52.1525Z" fill="#211813"/>
</g>
<g filter="url(#filter8_dddddii_4642_6342)">
<path d="M392.714 51.5596L456.909 271.963H459.354L523.55 51.5596H619.537L516.213 364.154H400.05L296.727 51.5596H392.714Z" fill="#C3C3C3"/>
<path d="M392.714 51.5596L456.909 271.963H459.354L523.55 51.5596H619.537L516.213 364.154H400.05L296.727 51.5596H392.714Z" fill="url(#paint8_linear_4642_6342)" style="mix-blend-mode:overlay"/>
<path d="M392.714 51.5596L456.909 271.963H459.354L523.55 51.5596H619.537L516.213 364.154H400.05L296.727 51.5596H392.714Z" fill="url(#paint9_radial_4642_6342)" fill-opacity="0.2" style="mix-blend-mode:lighten"/>
</g>
<g filter="url(#filter9_dddddii_4642_6342)">
<path d="M658.253 51.5591H754.24L650.917 364.154H563.932L658.253 51.5591Z" fill="#C3C3C3"/>
<path d="M658.253 51.5591H754.24L650.917 364.154H563.932L658.253 51.5591Z" fill="url(#paint10_linear_4642_6342)" style="mix-blend-mode:overlay"/>
<path d="M658.253 51.5591H754.24L650.917 364.154H563.932L658.253 51.5591Z" fill="url(#paint11_radial_4642_6342)" fill-opacity="0.2" style="mix-blend-mode:lighten"/>
</g>
<g filter="url(#filter10_f_4642_6342)" style="mix-blend-mode:plus-lighter">
<ellipse cx="118.557" cy="6.71679" rx="118.557" ry="6.71679" transform="matrix(0.307276 0.95162 -0.951827 0.306634 320.176 90.1602)" fill="url(#paint12_radial_4642_6342)"/>
</g>
<g filter="url(#filter11_f_4642_6342)" style="mix-blend-mode:plus-lighter">
<ellipse cx="184.481" cy="16.1735" rx="184.481" ry="16.1735" transform="matrix(0.307276 0.95162 -0.951827 0.306634 307.104 30.1299)" fill="url(#paint13_radial_4642_6342)"/>
</g>
<g filter="url(#filter12_f_4642_6342)" style="mix-blend-mode:plus-lighter">
<ellipse cx="118.557" cy="6.71679" rx="118.557" ry="6.71679" transform="matrix(-0.307276 0.95162 0.951827 0.306634 598.055 90.1602)" fill="url(#paint14_radial_4642_6342)"/>
</g>
<g filter="url(#filter13_f_4642_6342)" style="mix-blend-mode:plus-lighter">
<ellipse cx="184.481" cy="16.1735" rx="184.481" ry="16.1735" transform="matrix(-0.307276 0.95162 0.951827 0.306634 611.127 30.1299)" fill="url(#paint15_radial_4642_6342)"/>
</g>
<g filter="url(#filter14_f_4642_6342)" style="mix-blend-mode:plus-lighter">
<ellipse cx="184.481" cy="16.1735" rx="184.481" ry="16.1735" transform="matrix(-0.307276 0.95162 0.951827 0.306634 741.305 30.1299)" fill="url(#paint16_radial_4642_6342)"/>
</g>
<defs>
<filter id="filter0_f_4642_6342" x="17.8454" y="47.5061" width="312.133" height="322.227" filterUnits="userSpaceOnUse" color-interpolation-filters="sRGB">
<feFlood flood-opacity="0" result="BackgroundImageFix"/>
<feBlend mode="normal" in="SourceGraphic" in2="BackgroundImageFix" result="shape"/>
<feGaussianBlur stdDeviation="2.0431" result="effect1_foregroundBlur_4642_6342"/>
</filter>
<filter id="filter1_f_4642_6342" x="252.847" y="209.339" width="98.2017" height="159.083" filterUnits="userSpaceOnUse" color-interpolation-filters="sRGB">
<feFlood flood-opacity="0" result="BackgroundImageFix"/>
<feBlend mode="normal" in="SourceGraphic" in2="BackgroundImageFix" result="shape"/>
<feGaussianBlur stdDeviation="2.0431" result="effect1_foregroundBlur_4642_6342"/>
</filter>
<filter id="filter2_f_4642_6342" x="276.822" y="46.7532" width="330.239" height="320.479" filterUnits="userSpaceOnUse" color-interpolation-filters="sRGB">
<feFlood flood-opacity="0" result="BackgroundImageFix"/>
<feBlend mode="normal" in="SourceGraphic" in2="BackgroundImageFix" result="shape"/>
<feGaussianBlur stdDeviation="2.0431" result="effect1_foregroundBlur_4642_6342"/>
</filter>
<filter id="filter3_dddddddii_4642_6342" x="-0.000389099" y="0.000190496" width="411.161" height="421.254" filterUnits="userSpaceOnUse" color-interpolation-filters="sRGB">
<feFlood flood-opacity="0" result="BackgroundImageFix"/>
<feColorMatrix in="SourceAlpha" type="matrix" values="0 0 0 0 0 0 0 0 0 0 0 0 0 0 0 0 0 0 127 0" result="hardAlpha"/>
<feOffset dy="2.0079"/>
<feGaussianBlur stdDeviation="26.8"/>
<feComposite in2="hardAlpha" operator="out"/>
<feColorMatrix type="matrix" values="0 0 0 0 1 0 0 0 0 0.960737 0 0 0 0 0.831731 0 0 0 0.18 0"/>
<feBlend mode="normal" in2="BackgroundImageFix" result="effect1_dropShadow_4642_6342"/>
<feColorMatrix in="SourceAlpha" type="matrix" values="0 0 0 0 0 0 0 0 0 0 0 0 0 0 0 0 0 0 127 0" result="hardAlpha"/>
<feOffset dy="0.433164"/>
<feGaussianBlur stdDeviation="0.173265"/>
<feColorMatrix type="matrix" values="0 0 0 0 0 0 0 0 0 0 0 0 0 0 0 0 0 0 0.48 0"/>
<feBlend mode="normal" in2="effect1_dropShadow_4642_6342" result="effect2_dropShadow_4642_6342"/>
<feColorMatrix in="SourceAlpha" type="matrix" values="0 0 0 0 0 0 0 0 0 0 0 0 0 0 0 0 0 0 127 0" result="hardAlpha"/>
<feOffset dy="1.04095"/>
<feGaussianBlur stdDeviation="0.416381"/>
<feColorMatrix type="matrix" values="0 0 0 0 0 0 0 0 0 0 0 0 0 0 0 0 0 0 0.34505 0"/>
<feBlend mode="normal" in2="effect2_dropShadow_4642_6342" result="effect3_dropShadow_4642_6342"/>
<feColorMatrix in="SourceAlpha" type="matrix" values="0 0 0 0 0 0 0 0 0 0 0 0 0 0 0 0 0 0 127 0" result="hardAlpha"/>
<feOffset dy="1.96002"/>
<feGaussianBlur stdDeviation="0.784009"/>
<feColorMatrix type="matrix" values="0 0 0 0 0 0 0 0 0 0 0 0 0 0 0 0 0 0 0.286131 0"/>
<feBlend mode="normal" in2="effect3_dropShadow_4642_6342" result="effect4_dropShadow_4642_6342"/>
<feColorMatrix in="SourceAlpha" type="matrix" values="0 0 0 0 0 0 0 0 0 0 0 0 0 0 0 0 0 0 127 0" result="hardAlpha"/>
<feOffset dy="3.49634"/>
<feGaussianBlur stdDeviation="1.39854"/>
<feColorMatrix type="matrix" values="0 0 0 0 0 0 0 0 0 0 0 0 0 0 0 0 0 0 0.24 0"/>
<feBlend mode="normal" in2="effect4_dropShadow_4642_6342" result="effect5_dropShadow_4642_6342"/>
<feColorMatrix in="SourceAlpha" type="matrix" values="0 0 0 0 0 0 0 0 0 0 0 0 0 0 0 0 0 0 127 0" result="hardAlpha"/>
<feOffset dy="6.53953"/>
<feGaussianBlur stdDeviation="2.61581"/>
<feColorMatrix type="matrix" values="0 0 0 0 0 0 0 0 0 0 0 0 0 0 0 0 0 0 0.193869 0"/>
<feBlend mode="normal" in2="effect5_dropShadow_4642_6342" result="effect6_dropShadow_4642_6342"/>
<feColorMatrix in="SourceAlpha" type="matrix" values="0 0 0 0 0 0 0 0 0 0 0 0 0 0 0 0 0 0 127 0" result="hardAlpha"/>
<feOffset dy="15.6532"/>
<feGaussianBlur stdDeviation="6.26127"/>
<feColorMatrix type="matrix" values="0 0 0 0 0 0 0 0 0 0 0 0 0 0 0 0 0 0 0.13495 0"/>
<feBlend mode="normal" in2="effect6_dropShadow_4642_6342" result="effect7_dropShadow_4642_6342"/>
<feBlend mode="normal" in="SourceGraphic" in2="effect7_dropShadow_4642_6342" result="shape"/>
<feColorMatrix in="SourceAlpha" type="matrix" values="0 0 0 0 0 0 0 0 0 0 0 0 0 0 0 0 0 0 127 0" result="hardAlpha"/>
<feOffset/>
<feGaussianBlur stdDeviation="0.039133"/>
<feComposite in2="hardAlpha" operator="arithmetic" k2="-1" k3="1"/>
<feColorMatrix type="matrix" values="0 0 0 0 0.799583 0 0 0 0 0.826364 0 0 0 0 0.841667 0 0 0 1 0"/>
<feBlend mode="normal" in2="shape" result="effect8_innerShadow_4642_6342"/>
<feColorMatrix in="SourceAlpha" type="matrix" values="0 0 0 0 0 0 0 0 0 0 0 0 0 0 0 0 0 0 127 0" result="hardAlpha"/>
<feOffset dy="0.626127"/>
<feGaussianBlur stdDeviation="0.156532"/>
<feComposite in2="hardAlpha" operator="arithmetic" k2="-1" k3="1"/>
<feColorMatrix type="matrix" values="0 0 0 0 1 0 0 0 0 1 0 0 0 0 1 0 0 0 0.25 0"/>
<feBlend mode="normal" in2="effect8_innerShadow_4642_6342" result="effect9_innerShadow_4642_6342"/>
</filter>
<clipPath id="paint0_angular_4642_6342_clip_path"><path d="M182.93 365.643L182.895 365.642C157.172 365.374 133.859 358.305 113.781 343.941L113.742 343.914L113.703 343.886C94.0561 329.693 79.1877 310.411 68.8644 286.821C58.5082 263.155 53.5996 236.601 53.5996 207.587C53.5996 178.652 58.7902 152.209 69.7614 128.744L69.7721 128.721L69.7828 128.699C80.7628 105.363 96.2128 86.4152 116.304 72.5706C136.766 58.4701 160.19 51.5923 185.849 51.5923C204.454 51.5923 221.692 55.1946 236.858 63.2302C246.981 68.5148 251.871 72.8371 253.275 74.1895C253.557 74.462 253.663 74.8584 253.577 75.2417L231.373 175.214C231.093 176.473 229.144 176.516 228.781 175.278C226.126 166.225 219.454 147.636 206.806 135.746L206.69 135.66L206.577 135.573C201.504 131.694 194.98 129.329 185.849 129.329C176.446 129.329 168.628 132.066 161.606 137.61C154.167 143.484 147.739 152.06 142.789 164.33C137.912 176.422 135.218 190.94 135.218 208.274C135.218 225.196 137.755 239.787 142.453 252.329C147.158 264.777 153.334 273.614 160.492 279.773C166.961 285.234 174.2 287.907 183.109 287.907C191.686 287.907 198.26 285.652 203.73 281.613C203.776 281.578 203.82 281.541 203.861 281.5C224.333 261.005 225.039 209.381 225.064 205.843C225.064 205.707 225.087 205.586 225.133 205.458L278.996 52.3951C279.165 51.9141 279.62 51.5923 280.13 51.5923H356.359C357.184 51.5923 357.763 52.4044 357.495 53.1845L277.233 286.821C264.446 330.446 253.713 343.941 234.861 354.581C219.27 362.32 201.778 365.776 182.964 365.643L182.93 365.643Z"/></clipPath><filter id="filter4_dddddddii_4642_6342" x="180.822" y="123.07" width="274.756" height="335.637" filterUnits="userSpaceOnUse" color-interpolation-filters="sRGB">
<feFlood flood-opacity="0" result="BackgroundImageFix"/>
<feColorMatrix in="SourceAlpha" type="matrix" values="0 0 0 0 0 0 0 0 0 0 0 0 0 0 0 0 0 0 127 0" result="hardAlpha"/>
<feOffset dy="2.0079"/>
<feGaussianBlur stdDeviation="46.1818"/>
<feComposite in2="hardAlpha" operator="out"/>
<feColorMatrix type="matrix" values="0 0 0 0 1 0 0 0 0 0.960737 0 0 0 0 0.831731 0 0 0 0.42 0"/>
<feBlend mode="normal" in2="BackgroundImageFix" result="effect1_dropShadow_4642_6342"/>
<feColorMatrix in="SourceAlpha" type="matrix" values="0 0 0 0 0 0 0 0 0 0 0 0 0 0 0 0 0 0 127 0" result="hardAlpha"/>
<feOffset dy="0.433164"/>
<feGaussianBlur stdDeviation="0.173265"/>
<feColorMatrix type="matrix" values="0 0 0 0 0 0 0 0 0 0 0 0 0 0 0 0 0 0 0.48 0"/>
<feBlend mode="normal" in2="effect1_dropShadow_4642_6342" result="effect2_dropShadow_4642_6342"/>
<feColorMatrix in="SourceAlpha" type="matrix" values="0 0 0 0 0 0 0 0 0 0 0 0 0 0 0 0 0 0 127 0" result="hardAlpha"/>
<feOffset dy="1.04095"/>
<feGaussianBlur stdDeviation="0.416381"/>
<feColorMatrix type="matrix" values="0 0 0 0 0 0 0 0 0 0 0 0 0 0 0 0 0 0 0.34505 0"/>
<feBlend mode="normal" in2="effect2_dropShadow_4642_6342" result="effect3_dropShadow_4642_6342"/>
<feColorMatrix in="SourceAlpha" type="matrix" values="0 0 0 0 0 0 0 0 0 0 0 0 0 0 0 0 0 0 127 0" result="hardAlpha"/>
<feOffset dy="1.96002"/>
<feGaussianBlur stdDeviation="0.784009"/>
<feColorMatrix type="matrix" values="0 0 0 0 0 0 0 0 0 0 0 0 0 0 0 0 0 0 0.286131 0"/>
<feBlend mode="normal" in2="effect3_dropShadow_4642_6342" result="effect4_dropShadow_4642_6342"/>
<feColorMatrix in="SourceAlpha" type="matrix" values="0 0 0 0 0 0 0 0 0 0 0 0 0 0 0 0 0 0 127 0" result="hardAlpha"/>
<feOffset dy="3.49634"/>
<feGaussianBlur stdDeviation="1.39854"/>
<feColorMatrix type="matrix" values="0 0 0 0 0 0 0 0 0 0 0 0 0 0 0 0 0 0 0.24 0"/>
<feBlend mode="normal" in2="effect4_dropShadow_4642_6342" result="effect5_dropShadow_4642_6342"/>
<feColorMatrix in="SourceAlpha" type="matrix" values="0 0 0 0 0 0 0 0 0 0 0 0 0 0 0 0 0 0 127 0" result="hardAlpha"/>
<feOffset dy="6.53953"/>
<feGaussianBlur stdDeviation="2.61581"/>
<feColorMatrix type="matrix" values="0 0 0 0 0 0 0 0 0 0 0 0 0 0 0 0 0 0 0.193869 0"/>
<feBlend mode="normal" in2="effect5_dropShadow_4642_6342" result="effect6_dropShadow_4642_6342"/>
<feColorMatrix in="SourceAlpha" type="matrix" values="0 0 0 0 0 0 0 0 0 0 0 0 0 0 0 0 0 0 127 0" result="hardAlpha"/>
<feOffset dy="15.6532"/>
<feGaussianBlur stdDeviation="6.26127"/>
<feColorMatrix type="matrix" values="0 0 0 0 0 0 0 0 0 0 0 0 0 0 0 0 0 0 0.13495 0"/>
<feBlend mode="normal" in2="effect6_dropShadow_4642_6342" result="effect7_dropShadow_4642_6342"/>
<feBlend mode="normal" in="SourceGraphic" in2="effect7_dropShadow_4642_6342" result="shape"/>
<feColorMatrix in="SourceAlpha" type="matrix" values="0 0 0 0 0 0 0 0 0 0 0 0 0 0 0 0 0 0 127 0" result="hardAlpha"/>
<feOffset/>
<feGaussianBlur stdDeviation="0.039133"/>
<feComposite in2="hardAlpha" operator="arithmetic" k2="-1" k3="1"/>
<feColorMatrix type="matrix" values="0 0 0 0 0.799583 0 0 0 0 0.826364 0 0 0 0 0.841667 0 0 0 1 0"/>
<feBlend mode="normal" in2="shape" result="effect8_innerShadow_4642_6342"/>
<feColorMatrix in="SourceAlpha" type="matrix" values="0 0 0 0 0 0 0 0 0 0 0 0 0 0 0 0 0 0 127 0" result="hardAlpha"/>
<feOffset dy="0.626127"/>
<feGaussianBlur stdDeviation="0.156532"/>
<feComposite in2="hardAlpha" operator="arithmetic" k2="-1" k3="1"/>
<feColorMatrix type="matrix" values="0 0 0 0 1 0 0 0 0 1 0 0 0 0 1 0 0 0 0.25 0"/>
<feBlend mode="normal" in2="effect8_innerShadow_4642_6342" result="effect9_innerShadow_4642_6342"/>
</filter>
<filter id="filter5_f_4642_6342" x="273.321" y="73.4044" width="83.0057" height="221.485" filterUnits="userSpaceOnUse" color-interpolation-filters="sRGB">
<feFlood flood-opacity="0" result="BackgroundImageFix"/>
<feBlend mode="normal" in="SourceGraphic" in2="BackgroundImageFix" result="shape"/>
<feGaussianBlur stdDeviation="4.10006" result="effect1_foregroundBlur_4642_6342"/>
</filter>
<filter id="filter6_f_4642_6342" x="246.383" y="12.5929" width="137.86" height="352.544" filterUnits="userSpaceOnUse" color-interpolation-filters="sRGB">
<feFlood flood-opacity="0" result="BackgroundImageFix"/>
<feBlend mode="normal" in="SourceGraphic" in2="BackgroundImageFix" result="shape"/>
<feGaussianBlur stdDeviation="8.34831" result="effect1_foregroundBlur_4642_6342"/>
</filter>
<filter id="filter7_f_4642_6342" x="49.8188" y="49.7324" width="203.646" height="162.091" filterUnits="userSpaceOnUse" color-interpolation-filters="sRGB">
<feFlood flood-opacity="0" result="BackgroundImageFix"/>
<feBlend mode="normal" in="SourceGraphic" in2="BackgroundImageFix" result="shape"/>
<feGaussianBlur stdDeviation="0.89627" result="effect1_foregroundBlur_4642_6342"/>
</filter>
<filter id="filter8_dddddii_4642_6342" x="282.484" y="51.5596" width="351.296" height="344.641" filterUnits="userSpaceOnUse" color-interpolation-filters="sRGB">
<feFlood flood-opacity="0" result="BackgroundImageFix"/>
<feColorMatrix in="SourceAlpha" type="matrix" values="0 0 0 0 0 0 0 0 0 0 0 0 0 0 0 0 0 0 127 0" result="hardAlpha"/>
<feOffset dy="0.492671"/>
<feGaussianBlur stdDeviation="0.197068"/>
<feColorMatrix type="matrix" values="0 0 0 0 0 0 0 0 0 0 0 0 0 0 0 0 0 0 0.48 0"/>
<feBlend mode="normal" in2="BackgroundImageFix" result="effect1_dropShadow_4642_6342"/>
<feColorMatrix in="SourceAlpha" type="matrix" values="0 0 0 0 0 0 0 0 0 0 0 0 0 0 0 0 0 0 127 0" result="hardAlpha"/>
<feOffset dy="1.18396"/>
<feGaussianBlur stdDeviation="0.473582"/>
<feColorMatrix type="matrix" values="0 0 0 0 0 0 0 0 0 0 0 0 0 0 0 0 0 0 0.34505 0"/>
<feBlend mode="normal" in2="effect1_dropShadow_4642_6342" result="effect2_dropShadow_4642_6342"/>
<feColorMatrix in="SourceAlpha" type="matrix" values="0 0 0 0 0 0 0 0 0 0 0 0 0 0 0 0 0 0 127 0" result="hardAlpha"/>
<feOffset dy="2.22928"/>
<feGaussianBlur stdDeviation="0.891714"/>
<feColorMatrix type="matrix" values="0 0 0 0 0 0 0 0 0 0 0 0 0 0 0 0 0 0 0.286131 0"/>
<feBlend mode="normal" in2="effect2_dropShadow_4642_6342" result="effect3_dropShadow_4642_6342"/>
<feColorMatrix in="SourceAlpha" type="matrix" values="0 0 0 0 0 0 0 0 0 0 0 0 0 0 0 0 0 0 127 0" result="hardAlpha"/>
<feOffset dy="7.43791"/>
<feGaussianBlur stdDeviation="2.97516"/>
<feColorMatrix type="matrix" values="0 0 0 0 0 0 0 0 0 0 0 0 0 0 0 0 0 0 0.193869 0"/>
<feBlend mode="normal" in2="effect3_dropShadow_4642_6342" result="effect4_dropShadow_4642_6342"/>
<feColorMatrix in="SourceAlpha" type="matrix" values="0 0 0 0 0 0 0 0 0 0 0 0 0 0 0 0 0 0 127 0" result="hardAlpha"/>
<feOffset dy="17.8036"/>
<feGaussianBlur stdDeviation="7.12143"/>
<feColorMatrix type="matrix" values="0 0 0 0 0 0 0 0 0 0 0 0 0 0 0 0 0 0 0.13495 0"/>
<feBlend mode="normal" in2="effect4_dropShadow_4642_6342" result="effect5_dropShadow_4642_6342"/>
<feBlend mode="normal" in="SourceGraphic" in2="effect5_dropShadow_4642_6342" result="shape"/>
<feColorMatrix in="SourceAlpha" type="matrix" values="0 0 0 0 0 0 0 0 0 0 0 0 0 0 0 0 0 0 127 0" result="hardAlpha"/>
<feOffset/>
<feGaussianBlur stdDeviation="0.0445089"/>
<feComposite in2="hardAlpha" operator="arithmetic" k2="-1" k3="1"/>
<feColorMatrix type="matrix" values="0 0 0 0 0.799583 0 0 0 0 0.826364 0 0 0 0 0.841667 0 0 0 1 0"/>
<feBlend mode="normal" in2="shape" result="effect6_innerShadow_4642_6342"/>
<feColorMatrix in="SourceAlpha" type="matrix" values="0 0 0 0 0 0 0 0 0 0 0 0 0 0 0 0 0 0 127 0" result="hardAlpha"/>
<feOffset dy="0.712143"/>
<feGaussianBlur stdDeviation="0.178036"/>
<feComposite in2="hardAlpha" operator="arithmetic" k2="-1" k3="1"/>
<feColorMatrix type="matrix" values="0 0 0 0 1 0 0 0 0 1 0 0 0 0 1 0 0 0 0.25 0"/>
<feBlend mode="normal" in2="effect6_innerShadow_4642_6342" result="effect7_innerShadow_4642_6342"/>
</filter>
<filter id="filter9_dddddii_4642_6342" x="549.689" y="51.5591" width="218.794" height="344.641" filterUnits="userSpaceOnUse" color-interpolation-filters="sRGB">
<feFlood flood-opacity="0" result="BackgroundImageFix"/>
<feColorMatrix in="SourceAlpha" type="matrix" values="0 0 0 0 0 0 0 0 0 0 0 0 0 0 0 0 0 0 127 0" result="hardAlpha"/>
<feOffset dy="0.492671"/>
<feGaussianBlur stdDeviation="0.197068"/>
<feColorMatrix type="matrix" values="0 0 0 0 0 0 0 0 0 0 0 0 0 0 0 0 0 0 0.48 0"/>
<feBlend mode="normal" in2="BackgroundImageFix" result="effect1_dropShadow_4642_6342"/>
<feColorMatrix in="SourceAlpha" type="matrix" values="0 0 0 0 0 0 0 0 0 0 0 0 0 0 0 0 0 0 127 0" result="hardAlpha"/>
<feOffset dy="1.18396"/>
<feGaussianBlur stdDeviation="0.473582"/>
<feColorMatrix type="matrix" values="0 0 0 0 0 0 0 0 0 0 0 0 0 0 0 0 0 0 0.34505 0"/>
<feBlend mode="normal" in2="effect1_dropShadow_4642_6342" result="effect2_dropShadow_4642_6342"/>
<feColorMatrix in="SourceAlpha" type="matrix" values="0 0 0 0 0 0 0 0 0 0 0 0 0 0 0 0 0 0 127 0" result="hardAlpha"/>
<feOffset dy="2.22928"/>
<feGaussianBlur stdDeviation="0.891714"/>
<feColorMatrix type="matrix" values="0 0 0 0 0 0 0 0 0 0 0 0 0 0 0 0 0 0 0.286131 0"/>
<feBlend mode="normal" in2="effect2_dropShadow_4642_6342" result="effect3_dropShadow_4642_6342"/>
<feColorMatrix in="SourceAlpha" type="matrix" values="0 0 0 0 0 0 0 0 0 0 0 0 0 0 0 0 0 0 127 0" result="hardAlpha"/>
<feOffset dy="7.43791"/>
<feGaussianBlur stdDeviation="2.97516"/>
<feColorMatrix type="matrix" values="0 0 0 0 0 0 0 0 0 0 0 0 0 0 0 0 0 0 0.193869 0"/>
<feBlend mode="normal" in2="effect3_dropShadow_4642_6342" result="effect4_dropShadow_4642_6342"/>
<feColorMatrix in="SourceAlpha" type="matrix" values="0 0 0 0 0 0 0 0 0 0 0 0 0 0 0 0 0 0 127 0" result="hardAlpha"/>
<feOffset dy="17.8036"/>
<feGaussianBlur stdDeviation="7.12143"/>
<feColorMatrix type="matrix" values="0 0 0 0 0 0 0 0 0 0 0 0 0 0 0 0 0 0 0.13495 0"/>
<feBlend mode="normal" in2="effect4_dropShadow_4642_6342" result="effect5_dropShadow_4642_6342"/>
<feBlend mode="normal" in="SourceGraphic" in2="effect5_dropShadow_4642_6342" result="shape"/>
<feColorMatrix in="SourceAlpha" type="matrix" values="0 0 0 0 0 0 0 0 0 0 0 0 0 0 0 0 0 0 127 0" result="hardAlpha"/>
<feOffset/>
<feGaussianBlur stdDeviation="0.0445089"/>
<feComposite in2="hardAlpha" operator="arithmetic" k2="-1" k3="1"/>
<feColorMatrix type="matrix" values="0 0 0 0 0.799583 0 0 0 0 0.826364 0 0 0 0 0.841667 0 0 0 1 0"/>
<feBlend mode="normal" in2="shape" result="effect6_innerShadow_4642_6342"/>
<feColorMatrix in="SourceAlpha" type="matrix" values="0 0 0 0 0 0 0 0 0 0 0 0 0 0 0 0 0 0 127 0" result="hardAlpha"/>
<feOffset dy="0.712143"/>
<feGaussianBlur stdDeviation="0.178036"/>
<feComposite in2="hardAlpha" operator="arithmetic" k2="-1" k3="1"/>
<feColorMatrix type="matrix" values="0 0 0 0 1 0 0 0 0 1 0 0 0 0 1 0 0 0 0.25 0"/>
<feBlend mode="normal" in2="effect6_innerShadow_4642_6342" result="effect7_innerShadow_4642_6342"/>
</filter>
<filter id="filter10_f_4642_6342" x="305.065" y="84.0467" width="90.2943" height="241.989" filterUnits="userSpaceOnUse" color-interpolation-filters="sRGB">
<feFlood flood-opacity="0" result="BackgroundImageFix"/>
<feBlend mode="normal" in="SourceGraphic" in2="BackgroundImageFix" result="shape"/>
<feGaussianBlur stdDeviation="4.07699" result="effect1_foregroundBlur_4642_6342"/>
</filter>
<filter id="filter11_f_4642_6342" x="273.038" y="18.4149" width="150.715" height="384.46" filterUnits="userSpaceOnUse" color-interpolation-filters="sRGB">
<feFlood flood-opacity="0" result="BackgroundImageFix"/>
<feBlend mode="normal" in="SourceGraphic" in2="BackgroundImageFix" result="shape"/>
<feGaussianBlur stdDeviation="8.30134" result="effect1_foregroundBlur_4642_6342"/>
</filter>
<filter id="filter12_f_4642_6342" x="522.871" y="84.0467" width="90.2943" height="241.989" filterUnits="userSpaceOnUse" color-interpolation-filters="sRGB">
<feFlood flood-opacity="0" result="BackgroundImageFix"/>
<feBlend mode="normal" in="SourceGraphic" in2="BackgroundImageFix" result="shape"/>
<feGaussianBlur stdDeviation="4.07699" result="effect1_foregroundBlur_4642_6342"/>
</filter>
<filter id="filter13_f_4642_6342" x="494.477" y="18.4149" width="150.715" height="384.46" filterUnits="userSpaceOnUse" color-interpolation-filters="sRGB">
<feFlood flood-opacity="0" result="BackgroundImageFix"/>
<feBlend mode="normal" in="SourceGraphic" in2="BackgroundImageFix" result="shape"/>
<feGaussianBlur stdDeviation="8.30134" result="effect1_foregroundBlur_4642_6342"/>
</filter>
<filter id="filter14_f_4642_6342" x="624.655" y="18.4149" width="150.715" height="384.46" filterUnits="userSpaceOnUse" color-interpolation-filters="sRGB">
<feFlood flood-opacity="0" result="BackgroundImageFix"/>
<feBlend mode="normal" in="SourceGraphic" in2="BackgroundImageFix" result="shape"/>
<feGaussianBlur stdDeviation="8.30134" result="effect1_foregroundBlur_4642_6342"/>
</filter>
<linearGradient id="paint1_linear_4642_6342" x1="157.131" y1="51.6448" x2="255.072" y2="371.135" gradientUnits="userSpaceOnUse">
<stop stop-color="#F1F1F1" stop-opacity="0.91"/>
<stop offset="0.0857143" stop-color="white"/>
<stop offset="0.660774" stop-color="#8E8E8E" stop-opacity="0.13"/>
<stop offset="0.829297" stop-color="#232222" stop-opacity="0.82"/>
</linearGradient>
<radialGradient id="paint2_radial_4642_6342" cx="0" cy="0" r="1" gradientUnits="userSpaceOnUse" gradientTransform="translate(155.097 304.886) rotate(-90) scale(122.425 338.646)">
<stop offset="0.145" stop-color="white"/>
<stop offset="1" stop-opacity="0"/>
</radialGradient>
<linearGradient id="paint3_linear_4642_6342" x1="303.942" y1="210.681" x2="372.7" y2="347.044" gradientUnits="userSpaceOnUse">
<stop stop-color="#F1F1F1" stop-opacity="0.91"/>
<stop offset="0.0857143" stop-color="white"/>
<stop offset="0.660774" stop-color="#8E8E8E" stop-opacity="0.13"/>
<stop offset="0.829297" stop-color="#232222" stop-opacity="0.82"/>
</linearGradient>
<radialGradient id="paint4_radial_4642_6342" cx="0" cy="0" r="1" gradientUnits="userSpaceOnUse" gradientTransform="translate(303.337 334.603) rotate(-90) scale(59.9078 100.751)">
<stop offset="0.145" stop-color="white"/>
<stop offset="1" stop-opacity="0"/>
</radialGradient>
<radialGradient id="paint5_radial_4642_6342" cx="0" cy="0" r="1" gradientUnits="userSpaceOnUse" gradientTransform="translate(107.749 3.72759) rotate(-90) scale(3.72759 107.749)">
<stop stop-color="#EEA434"/>
<stop offset="1" stop-color="#D77630" stop-opacity="0"/>
</radialGradient>
<radialGradient id="paint6_radial_4642_6342" cx="0" cy="0" r="1" gradientTransform="matrix(2.60838 -6.68373 124.849 0.228029 167.664 8.97575)" gradientUnits="userSpaceOnUse">
<stop stop-color="#EEBA34"/>
<stop offset="1" stop-color="#EEC534" stop-opacity="0"/>
</radialGradient>
<linearGradient id="paint7_linear_4642_6342" x1="220.459" y1="61.3105" x2="120.061" y2="225.394" gradientUnits="userSpaceOnUse">
<stop stop-color="#FFEEB5" stop-opacity="0"/>
<stop offset="0.197115" stop-color="#FFEEB5"/>
<stop offset="0.831731" stop-color="#FFEEB5"/>
<stop offset="1" stop-color="#998F6D" stop-opacity="0"/>
</linearGradient>
<linearGradient id="paint8_linear_4642_6342" x1="461.8" y1="61.5453" x2="513.448" y2="378.176" gradientUnits="userSpaceOnUse">
<stop stop-color="#F1F1F1" stop-opacity="0.91"/>
<stop offset="0.0857143" stop-color="white"/>
<stop offset="0.660774" stop-color="#8E8E8E" stop-opacity="0.13"/>
<stop offset="0.829297" stop-color="#232222" stop-opacity="0.82"/>
</linearGradient>
<radialGradient id="paint9_radial_4642_6342" cx="0" cy="0" r="1" gradientUnits="userSpaceOnUse" gradientTransform="translate(458.245 297.065) rotate(-90) scale(113.857 591.897)">
<stop offset="0.145" stop-color="white"/>
<stop offset="1" stop-opacity="0"/>
</radialGradient>
<linearGradient id="paint10_linear_4642_6342" x1="596.501" y1="61.5448" x2="648.149" y2="378.175" gradientUnits="userSpaceOnUse">
<stop stop-color="#F1F1F1" stop-opacity="0.91"/>
<stop offset="0.0857143" stop-color="white"/>
<stop offset="0.660774" stop-color="#8E8E8E" stop-opacity="0.13"/>
<stop offset="0.829297" stop-color="#232222" stop-opacity="0.82"/>
</linearGradient>
<radialGradient id="paint11_radial_4642_6342" cx="0" cy="0" r="1" gradientUnits="userSpaceOnUse" gradientTransform="translate(592.946 297.064) rotate(-90) scale(113.857 591.897)">
<stop offset="0.145" stop-color="white"/>
<stop offset="1" stop-opacity="0"/>
</radialGradient>
<radialGradient id="paint12_radial_4642_6342" cx="0" cy="0" r="1" gradientUnits="userSpaceOnUse" gradientTransform="translate(118.557 6.71679) rotate(-90) scale(6.71679 118.557)">
<stop stop-color="#BABABA"/>
<stop offset="1" stop-color="#D0D0D0" stop-opacity="0"/>
</radialGradient>
<radialGradient id="paint13_radial_4642_6342" cx="0" cy="0" r="1" gradientTransform="matrix(2.87002 -12.0435 137.372 0.410889 184.481 16.1735)" gradientUnits="userSpaceOnUse">
<stop stop-color="#E9E9E9"/>
<stop offset="1" stop-color="#D9D9D9" stop-opacity="0"/>
</radialGradient>
<radialGradient id="paint14_radial_4642_6342" cx="0" cy="0" r="1" gradientUnits="userSpaceOnUse" gradientTransform="translate(118.557 6.71679) rotate(-90) scale(6.71679 118.557)">
<stop stop-color="#BABABA"/>
<stop offset="1" stop-color="#D0D0D0" stop-opacity="0"/>
</radialGradient>
<radialGradient id="paint15_radial_4642_6342" cx="0" cy="0" r="1" gradientTransform="matrix(2.87002 -12.0435 137.372 0.410889 184.481 16.1735)" gradientUnits="userSpaceOnUse">
<stop stop-color="#E9E9E9"/>
<stop offset="1" stop-color="#D9D9D9" stop-opacity="0"/>
</radialGradient>
<radialGradient id="paint16_radial_4642_6342" cx="0" cy="0" r="1" gradientTransform="matrix(2.87002 -12.0435 137.372 0.410889 184.481 16.1735)" gradientUnits="userSpaceOnUse">
<stop stop-color="#E9E9E9"/>
<stop offset="1" stop-color="#D9D9D9" stop-opacity="0"/>
</radialGradient>
</defs>
</svg>
