<svg width="168" height="79" viewBox="0 0 168 79" fill="none" xmlns="http://www.w3.org/2000/svg">
<g opacity="0.69" style="mix-blend-mode:multiply">
<path d="M36.2314 2.91357C43.3523 2.91359 49.1503 4.49403 53.4287 7.85596L53.8359 8.18018C57.9705 11.5711 60.0039 16.2725 60.0039 22.0854C60.0038 26.3492 58.8624 30.0411 56.4951 33.0562C55.1292 34.8062 53.4786 36.2184 51.5596 37.2954C53.5765 38.2549 55.5342 39.6107 57.0967 41.438L70.5947 4.26709C70.8898 3.45461 71.662 2.91357 72.5264 2.91357H93.5938C94.4581 2.91357 95.2304 3.45461 95.5254 4.26709L109.76 43.4683L99.7764 5.49072C99.4339 4.18793 100.417 2.91357 101.764 2.91357H137.136C142.753 2.91361 147.623 3.90454 151.678 5.96631H151.677C155.695 7.94525 158.784 10.7389 160.875 14.3569L161.252 15.0239C163.075 18.3838 163.976 22.123 163.976 26.2065C163.976 31.1285 162.601 35.5245 159.832 39.3335L159.833 39.3345C157.449 42.636 154.105 45.0663 149.893 46.6646L163.771 70.6685C164.564 72.0383 163.575 73.7515 161.992 73.7515H141.99C141.234 73.7514 140.539 73.3369 140.181 72.6714L127.934 49.9253V71.6968C127.934 72.8316 127.014 73.7514 125.879 73.7515H119.306C119.048 73.7514 118.8 73.7021 118.57 73.6138C118.341 73.7025 118.091 73.7514 117.825 73.7515H98.8965C98.0101 73.7515 97.2234 73.183 96.9453 72.3413L93.7686 62.728H72.1602L68.8877 72.6333L68.5176 73.7515H4.25684C3.12204 73.7514 2.20215 72.8316 2.20215 71.6968V4.96826C2.2022 3.83351 3.12206 2.91362 4.25684 2.91357H36.2314ZM24.25 55.3472H33.5479C35.7239 55.3471 37.0525 54.8848 37.8203 54.2417C38.5329 53.6447 39.0107 52.6803 39.0107 51.0337C39.0107 49.3523 38.5026 48.2881 37.668 47.5786L37.6367 47.5513C36.8247 46.8248 35.5151 46.3374 33.4512 46.3374H24.25V55.3472ZM77.4268 46.9165L77.417 46.9438L76.4209 49.7964H89.4932L88.5605 46.9077V46.9067L82.9707 30.0601L77.4268 46.9165ZM127.934 32.7251H135.602C137.927 32.7251 139.368 32.1713 140.23 31.3521C141.094 30.5319 141.641 29.258 141.641 27.2612C141.641 25.4486 141.096 24.2328 140.164 23.3892L140.134 23.3618L140.104 23.3335C139.233 22.4619 137.829 21.894 135.602 21.894H127.934V32.7251ZM24.25 29.7534H32.1094C34.2908 29.7534 35.624 29.2971 36.3926 28.6636C37.1009 28.0797 37.5732 27.1416 37.5732 25.5356C37.5732 23.8488 37.09 22.8579 36.373 22.2476C35.6059 21.5945 34.2809 21.1265 32.1094 21.1265H24.25V29.7534Z" fill="black"/>
<path d="M36.2314 2.91357C43.3523 2.91359 49.1503 4.49403 53.4287 7.85596L53.8359 8.18018C57.9705 11.5711 60.0039 16.2725 60.0039 22.0854C60.0038 26.3492 58.8624 30.0411 56.4951 33.0562C55.1292 34.8062 53.4786 36.2184 51.5596 37.2954C53.5765 38.2549 55.5342 39.6107 57.0967 41.438L70.5947 4.26709C70.8898 3.45461 71.662 2.91357 72.5264 2.91357H93.5938C94.4581 2.91357 95.2304 3.45461 95.5254 4.26709L109.76 43.4683L99.7764 5.49072C99.4339 4.18793 100.417 2.91357 101.764 2.91357H137.136C142.753 2.91361 147.623 3.90454 151.678 5.96631H151.677C155.695 7.94525 158.784 10.7389 160.875 14.3569L161.252 15.0239C163.075 18.3838 163.976 22.123 163.976 26.2065C163.976 31.1285 162.601 35.5245 159.832 39.3335L159.833 39.3345C157.449 42.636 154.105 45.0663 149.893 46.6646L163.771 70.6685C164.564 72.0383 163.575 73.7515 161.992 73.7515H141.99C141.234 73.7514 140.539 73.3369 140.181 72.6714L127.934 49.9253V71.6968C127.934 72.8316 127.014 73.7514 125.879 73.7515H119.306C119.048 73.7514 118.8 73.7021 118.57 73.6138C118.341 73.7025 118.091 73.7514 117.825 73.7515H98.8965C98.0101 73.7515 97.2234 73.183 96.9453 72.3413L93.7686 62.728H72.1602L68.8877 72.6333L68.5176 73.7515H4.25684C3.12204 73.7514 2.20215 72.8316 2.20215 71.6968V4.96826C2.2022 3.83351 3.12206 2.91362 4.25684 2.91357H36.2314ZM24.25 55.3472H33.5479C35.7239 55.3471 37.0525 54.8848 37.8203 54.2417C38.5329 53.6447 39.0107 52.6803 39.0107 51.0337C39.0107 49.3523 38.5026 48.2881 37.668 47.5786L37.6367 47.5513C36.8247 46.8248 35.5151 46.3374 33.4512 46.3374H24.25V55.3472ZM77.4268 46.9165L77.417 46.9438L76.4209 49.7964H89.4932L88.5605 46.9077V46.9067L82.9707 30.0601L77.4268 46.9165ZM127.934 32.7251H135.602C137.927 32.7251 139.368 32.1713 140.23 31.3521C141.094 30.5319 141.641 29.258 141.641 27.2612C141.641 25.4486 141.096 24.2328 140.164 23.3892L140.134 23.3618L140.104 23.3335C139.233 22.4619 137.829 21.894 135.602 21.894H127.934V32.7251ZM24.25 29.7534H32.1094C34.2908 29.7534 35.624 29.2971 36.3926 28.6636C37.1009 28.0797 37.5732 27.1416 37.5732 25.5356C37.5732 23.8488 37.09 22.8579 36.373 22.2476C35.6059 21.5945 34.2809 21.1265 32.1094 21.1265H24.25V29.7534Z" stroke="black" stroke-width="3.25981"/>
</g>
<g filter="url(#filter0_ddddddii_4642_6117)">
<path fill-rule="evenodd" clip-rule="evenodd" d="M49.011 35.1783C48.5907 35.0428 48.5749 34.3649 48.9877 34.2082C51.6965 33.1796 53.9096 31.5652 55.6269 29.3649C57.7357 26.681 58.7901 23.358 58.7901 19.3959C58.7901 13.8363 56.8091 9.52273 52.847 6.45534C48.9489 3.38795 43.549 1.85425 36.6474 1.85425H4.67294C4.43828 1.85425 4.24805 2.04448 4.24805 2.27914V69.0078C4.24805 69.2425 4.43828 69.4327 4.67294 69.4327H37.7018H46.7349H53.6732H67.2185C67.5392 69.4327 67.8239 69.227 67.9245 68.9225L71.3021 58.7009C71.3596 58.5268 71.5222 58.4093 71.7055 58.4093H95.0553C95.2386 58.4093 95.4013 58.5268 95.4588 58.7009L98.9086 69.1412C98.9661 69.3152 99.1287 69.4327 99.312 69.4327H118.241C118.536 69.4327 118.741 69.1399 118.64 68.8628L94.4096 2.13412C94.3486 1.96611 94.189 1.85425 94.0102 1.85425H72.9423C72.7635 1.85425 72.6039 1.96611 72.5429 2.13412L58.2849 41.3981C58.2817 41.4068 58.2783 41.4153 58.2747 41.4236C58.2304 41.5259 58.1582 41.6158 58.1187 41.72L48.9385 65.9178L55.2688 39.2653C55.3298 39.0084 55.251 38.7372 55.0545 38.5608C53.2784 36.966 51.1276 35.8605 49.011 35.1783ZM23.4607 28.6939H32.5256C37.2545 28.6939 39.6189 26.7449 39.6189 22.8467C39.6189 18.8208 37.2545 16.8078 32.5256 16.8078H23.4607C23.2261 16.8078 23.0358 16.998 23.0358 17.2327V28.269C23.0358 28.5037 23.2261 28.6939 23.4607 28.6939ZM33.9634 54.2875C38.6923 54.2875 41.0568 52.3065 41.0568 48.3444C41.0568 46.2995 40.4177 44.7338 39.1396 43.6475C37.9255 42.5611 36.1681 42.0179 33.8676 42.0179H23.4607C23.2261 42.0179 23.0358 42.2081 23.0358 42.4428V53.8626C23.0358 54.0973 23.2261 54.2875 23.4607 54.2875H33.9634ZM83.7854 23.3964C83.6565 23.0077 83.1065 23.0084 82.9785 23.3974L76.2942 43.7176L74.5908 48.5954C74.5667 48.6645 74.618 48.7366 74.6911 48.7366H83.3804H92.0021C92.0742 48.7366 92.1254 48.6664 92.1032 48.5978L90.5281 43.7176L83.7854 23.3964ZM142.032 69.2093C142.106 69.3469 142.25 69.4327 142.406 69.4327H162.409C162.736 69.4327 162.94 69.0784 162.776 68.7952L148.172 43.5364C148.035 43.2993 148.155 42.9964 148.416 42.9123C153.02 41.4269 156.523 39.0199 158.927 35.6914C161.483 32.1767 162.762 28.1188 162.762 23.5177C162.762 19.4279 161.803 15.7534 159.886 12.4943C157.969 9.17126 155.125 6.58315 151.355 4.72993C147.584 2.81281 142.983 1.85425 137.551 1.85425H102.18C101.901 1.85425 101.698 2.11778 101.769 2.38717L119.311 69.1159C119.36 69.3026 119.529 69.4327 119.722 69.4327H126.295C126.529 69.4327 126.72 69.2425 126.72 69.0078V44.9351C126.72 44.7004 126.91 44.5102 127.145 44.5102H128.479C128.635 44.5102 128.779 44.596 128.853 44.7336L142.032 69.2093ZM127.145 31.6655C126.91 31.6655 126.72 31.4752 126.72 31.2406V17.9995C126.72 17.7649 126.91 17.5746 127.145 17.5746H136.018C138.51 17.5746 140.395 18.2137 141.673 19.4918C143.015 20.7059 143.686 22.3994 143.686 24.5721C143.686 26.8727 143.047 28.63 141.769 29.8442C140.491 31.0584 138.574 31.6655 136.018 31.6655H127.145Z" fill="#BCBCBC"/>
<path fill-rule="evenodd" clip-rule="evenodd" d="M49.011 35.1783C48.5907 35.0428 48.5749 34.3649 48.9877 34.2082C51.6965 33.1796 53.9096 31.5652 55.6269 29.3649C57.7357 26.681 58.7901 23.358 58.7901 19.3959C58.7901 13.8363 56.8091 9.52273 52.847 6.45534C48.9489 3.38795 43.549 1.85425 36.6474 1.85425H4.67294C4.43828 1.85425 4.24805 2.04448 4.24805 2.27914V69.0078C4.24805 69.2425 4.43828 69.4327 4.67294 69.4327H37.7018H46.7349H53.6732H67.2185C67.5392 69.4327 67.8239 69.227 67.9245 68.9225L71.3021 58.7009C71.3596 58.5268 71.5222 58.4093 71.7055 58.4093H95.0553C95.2386 58.4093 95.4013 58.5268 95.4588 58.7009L98.9086 69.1412C98.9661 69.3152 99.1287 69.4327 99.312 69.4327H118.241C118.536 69.4327 118.741 69.1399 118.64 68.8628L94.4096 2.13412C94.3486 1.96611 94.189 1.85425 94.0102 1.85425H72.9423C72.7635 1.85425 72.6039 1.96611 72.5429 2.13412L58.2849 41.3981C58.2817 41.4068 58.2783 41.4153 58.2747 41.4236C58.2304 41.5259 58.1582 41.6158 58.1187 41.72L48.9385 65.9178L55.2688 39.2653C55.3298 39.0084 55.251 38.7372 55.0545 38.5608C53.2784 36.966 51.1276 35.8605 49.011 35.1783ZM23.4607 28.6939H32.5256C37.2545 28.6939 39.6189 26.7449 39.6189 22.8467C39.6189 18.8208 37.2545 16.8078 32.5256 16.8078H23.4607C23.2261 16.8078 23.0358 16.998 23.0358 17.2327V28.269C23.0358 28.5037 23.2261 28.6939 23.4607 28.6939ZM33.9634 54.2875C38.6923 54.2875 41.0568 52.3065 41.0568 48.3444C41.0568 46.2995 40.4177 44.7338 39.1396 43.6475C37.9255 42.5611 36.1681 42.0179 33.8676 42.0179H23.4607C23.2261 42.0179 23.0358 42.2081 23.0358 42.4428V53.8626C23.0358 54.0973 23.2261 54.2875 23.4607 54.2875H33.9634ZM83.7854 23.3964C83.6565 23.0077 83.1065 23.0084 82.9785 23.3974L76.2942 43.7176L74.5908 48.5954C74.5667 48.6645 74.618 48.7366 74.6911 48.7366H83.3804H92.0021C92.0742 48.7366 92.1254 48.6664 92.1032 48.5978L90.5281 43.7176L83.7854 23.3964ZM142.032 69.2093C142.106 69.3469 142.25 69.4327 142.406 69.4327H162.409C162.736 69.4327 162.94 69.0784 162.776 68.7952L148.172 43.5364C148.035 43.2993 148.155 42.9964 148.416 42.9123C153.02 41.4269 156.523 39.0199 158.927 35.6914C161.483 32.1767 162.762 28.1188 162.762 23.5177C162.762 19.4279 161.803 15.7534 159.886 12.4943C157.969 9.17126 155.125 6.58315 151.355 4.72993C147.584 2.81281 142.983 1.85425 137.551 1.85425H102.18C101.901 1.85425 101.698 2.11778 101.769 2.38717L119.311 69.1159C119.36 69.3026 119.529 69.4327 119.722 69.4327H126.295C126.529 69.4327 126.72 69.2425 126.72 69.0078V44.9351C126.72 44.7004 126.91 44.5102 127.145 44.5102H128.479C128.635 44.5102 128.779 44.596 128.853 44.7336L142.032 69.2093ZM127.145 31.6655C126.91 31.6655 126.72 31.4752 126.72 31.2406V17.9995C126.72 17.7649 126.91 17.5746 127.145 17.5746H136.018C138.51 17.5746 140.395 18.2137 141.673 19.4918C143.015 20.7059 143.686 22.3994 143.686 24.5721C143.686 26.8727 143.047 28.63 141.769 29.8442C140.491 31.0584 138.574 31.6655 136.018 31.6655H127.145Z" fill="url(#paint0_linear_4642_6117)" fill-opacity="0.46" style="mix-blend-mode:overlay"/>
<path fill-rule="evenodd" clip-rule="evenodd" d="M49.011 35.1783C48.5907 35.0428 48.5749 34.3649 48.9877 34.2082C51.6965 33.1796 53.9096 31.5652 55.6269 29.3649C57.7357 26.681 58.7901 23.358 58.7901 19.3959C58.7901 13.8363 56.8091 9.52273 52.847 6.45534C48.9489 3.38795 43.549 1.85425 36.6474 1.85425H4.67294C4.43828 1.85425 4.24805 2.04448 4.24805 2.27914V69.0078C4.24805 69.2425 4.43828 69.4327 4.67294 69.4327H37.7018H46.7349H53.6732H67.2185C67.5392 69.4327 67.8239 69.227 67.9245 68.9225L71.3021 58.7009C71.3596 58.5268 71.5222 58.4093 71.7055 58.4093H95.0553C95.2386 58.4093 95.4013 58.5268 95.4588 58.7009L98.9086 69.1412C98.9661 69.3152 99.1287 69.4327 99.312 69.4327H118.241C118.536 69.4327 118.741 69.1399 118.64 68.8628L94.4096 2.13412C94.3486 1.96611 94.189 1.85425 94.0102 1.85425H72.9423C72.7635 1.85425 72.6039 1.96611 72.5429 2.13412L58.2849 41.3981C58.2817 41.4068 58.2783 41.4153 58.2747 41.4236C58.2304 41.5259 58.1582 41.6158 58.1187 41.72L48.9385 65.9178L55.2688 39.2653C55.3298 39.0084 55.251 38.7372 55.0545 38.5608C53.2784 36.966 51.1276 35.8605 49.011 35.1783ZM23.4607 28.6939H32.5256C37.2545 28.6939 39.6189 26.7449 39.6189 22.8467C39.6189 18.8208 37.2545 16.8078 32.5256 16.8078H23.4607C23.2261 16.8078 23.0358 16.998 23.0358 17.2327V28.269C23.0358 28.5037 23.2261 28.6939 23.4607 28.6939ZM33.9634 54.2875C38.6923 54.2875 41.0568 52.3065 41.0568 48.3444C41.0568 46.2995 40.4177 44.7338 39.1396 43.6475C37.9255 42.5611 36.1681 42.0179 33.8676 42.0179H23.4607C23.2261 42.0179 23.0358 42.2081 23.0358 42.4428V53.8626C23.0358 54.0973 23.2261 54.2875 23.4607 54.2875H33.9634ZM83.7854 23.3964C83.6565 23.0077 83.1065 23.0084 82.9785 23.3974L76.2942 43.7176L74.5908 48.5954C74.5667 48.6645 74.618 48.7366 74.6911 48.7366H83.3804H92.0021C92.0742 48.7366 92.1254 48.6664 92.1032 48.5978L90.5281 43.7176L83.7854 23.3964ZM142.032 69.2093C142.106 69.3469 142.25 69.4327 142.406 69.4327H162.409C162.736 69.4327 162.94 69.0784 162.776 68.7952L148.172 43.5364C148.035 43.2993 148.155 42.9964 148.416 42.9123C153.02 41.4269 156.523 39.0199 158.927 35.6914C161.483 32.1767 162.762 28.1188 162.762 23.5177C162.762 19.4279 161.803 15.7534 159.886 12.4943C157.969 9.17126 155.125 6.58315 151.355 4.72993C147.584 2.81281 142.983 1.85425 137.551 1.85425H102.18C101.901 1.85425 101.698 2.11778 101.769 2.38717L119.311 69.1159C119.36 69.3026 119.529 69.4327 119.722 69.4327H126.295C126.529 69.4327 126.72 69.2425 126.72 69.0078V44.9351C126.72 44.7004 126.91 44.5102 127.145 44.5102H128.479C128.635 44.5102 128.779 44.596 128.853 44.7336L142.032 69.2093ZM127.145 31.6655C126.91 31.6655 126.72 31.4752 126.72 31.2406V17.9995C126.72 17.7649 126.91 17.5746 127.145 17.5746H136.018C138.51 17.5746 140.395 18.2137 141.673 19.4918C143.015 20.7059 143.686 22.3994 143.686 24.5721C143.686 26.8727 143.047 28.63 141.769 29.8442C140.491 31.0584 138.574 31.6655 136.018 31.6655H127.145Z" fill="url(#paint1_radial_4642_6117)" fill-opacity="0.2" style="mix-blend-mode:lighten"/>
</g>
<path d="M142.122 69.2885L143.051 68.2026L161.932 69.3971C161.932 69.3971 143.595 69.4242 142.833 69.4242C142.071 69.4242 142.122 69.2885 142.122 69.2885Z" fill="#C1C1C1" fill-opacity="0.5"/>
<path d="M90.5717 43.4675L83.7734 23.0991" stroke="url(#paint2_linear_4642_6117)" stroke-opacity="0.6" stroke-width="0.265559" stroke-linecap="round"/>
<path d="M76.2134 43.4675L83.0117 23.0991" stroke="url(#paint3_linear_4642_6117)" stroke-opacity="0.6" stroke-width="0.265559" stroke-linecap="round"/>
<path d="M57.2491 26.9872C54.5404 32.4843 48.8574 34.3167 48.8574 34.3167C50.0436 33.4087 52.0777 33.2544 55.2839 28.315C58.4902 23.3756 58.4175 18.091 57.8864 13.3906C57.8864 13.3906 58.8664 15.9751 58.869 19.4719C58.8708 21.8786 58.5053 24.4379 57.2491 26.9872Z" fill="url(#paint4_radial_4642_6117)" style="mix-blend-mode:plus-lighter"/>
<path d="M54.6562 51.2024L73.0129 1.25915" stroke="url(#paint5_radial_4642_6117)" stroke-width="0.212447"/>
<path d="M54.6562 51.2024L73.0129 1.25915" stroke="url(#paint6_radial_4642_6117)" stroke-width="0.637342"/>
<g filter="url(#filter1_f_4642_6117)" style="mix-blend-mode:plus-lighter">
<path d="M54.6562 51.2024L73.0129 1.25915" stroke="url(#paint7_radial_4642_6117)" stroke-width="1.91202"/>
</g>
<path d="M113.709 56.324L93.9135 1.80601" stroke="url(#paint8_radial_4642_6117)" stroke-width="0.212447"/>
<path d="M113.709 56.324L93.9135 1.80601" stroke="url(#paint9_radial_4642_6117)" stroke-width="0.637342"/>
<g filter="url(#filter2_f_4642_6117)" style="mix-blend-mode:plus-lighter">
<path d="M113.709 56.324L93.9135 1.80601" stroke="url(#paint10_radial_4642_6117)" stroke-width="1.91202"/>
</g>
<path d="M101.812 2.50263C101.812 2.50263 101.626 1.91848 102.104 1.8388C102.582 1.75911 103.631 3.07559 103.631 3.07559L119.908 67.1355L119.365 69.3173L101.812 2.50263Z" fill="url(#paint11_radial_4642_6117)" fill-opacity="0.5" style="mix-blend-mode:plus-lighter"/>
<path d="M128.793 44.6206L130.652 46.0812L143 68.1757L142.097 69.2645L128.793 44.6206Z" fill="url(#paint12_radial_4642_6117)" fill-opacity="0.5" style="mix-blend-mode:plus-lighter"/>
<path d="M83.1113 23.084L80.6416 28.6076L73.1794 48.7635H74.5338L76.2865 43.6117L83.1113 23.084Z" fill="url(#paint13_radial_4642_6117)" fill-opacity="0.5" style="mix-blend-mode:plus-lighter"/>
<path d="M55.3105 39.0166L53.8234 39.8929L48.9106 65.8646L55.3105 39.0166Z" fill="url(#paint14_radial_4642_6117)" fill-opacity="0.5" style="mix-blend-mode:plus-lighter"/>
<path d="M53.8238 39.8406L55.2578 38.9908C55.2755 38.9023 55.2206 38.6774 54.9657 38.4862C54.647 38.2472 53.6644 37.3443 52.3632 36.6273C51.3222 36.0537 49.6457 35.4146 48.9375 35.1667C49.9732 35.751 52.2039 37.1266 52.8412 37.9551C53.4786 38.7837 53.7707 39.5927 53.8238 39.8406Z" fill="url(#paint15_radial_4642_6117)" style="mix-blend-mode:overlay"/>
<path d="M23.0362 42.3894L22.0436 48.0193L23.0527 54.1271L23.0362 42.3894Z" fill="url(#paint16_radial_4642_6117)" fill-opacity="0.5" style="mix-blend-mode:plus-lighter"/>
<path d="M23.0362 16.8967L22.0436 22.5266L23.0527 28.6344L23.0362 16.8967Z" fill="url(#paint17_radial_4642_6117)" fill-opacity="0.5" style="mix-blend-mode:plus-lighter"/>
<path d="M83.6934 23.084L86.1631 28.6076L93.6784 48.7901H92.1381L90.5182 43.6117L83.6934 23.084Z" fill="url(#paint18_radial_4642_6117)" fill-opacity="0.5" style="mix-blend-mode:plus-lighter"/>
<mask id="mask0_4642_6117" style="mask-type:alpha" maskUnits="userSpaceOnUse" x="4" y="1" width="159" height="69">
<path fill-rule="evenodd" clip-rule="evenodd" d="M48.9877 34.2082C48.5749 34.3649 48.5907 35.0428 49.0111 35.1783C51.1287 35.8609 53.2807 36.9671 55.0573 38.5633C55.2537 38.7397 55.3325 39.0109 55.2715 39.2677L48.9416 65.9183L58.1264 41.7085C58.1643 41.6085 58.2324 41.5215 58.2749 41.4232C58.2785 41.415 58.2818 41.4067 58.2849 41.3981L72.5429 2.13412C72.6039 1.96611 72.7636 1.85425 72.9423 1.85425H94.0103C94.189 1.85425 94.3486 1.96611 94.4096 2.13412L118.64 68.8628C118.741 69.1399 118.536 69.4327 118.241 69.4327H99.3121C99.1288 69.4327 98.9661 69.3152 98.9086 69.1412L95.4588 58.7009C95.4013 58.5268 95.2386 58.4093 95.0553 58.4093H71.7055C71.5222 58.4093 71.3596 58.5268 71.3021 58.7009L67.9245 68.9225C67.8239 69.227 67.5393 69.4327 67.2185 69.4327H53.6732H37.7018H4.67294C4.43828 69.4327 4.24805 69.2425 4.24805 69.0078V2.27914C4.24805 2.04448 4.43828 1.85425 4.67294 1.85425H36.6474C43.549 1.85425 48.9489 3.38795 52.847 6.45534C56.8091 9.52273 58.7901 13.8363 58.7901 19.3959C58.7901 23.3579 57.7357 26.681 55.6269 29.3649C53.9096 31.5652 51.6965 33.1796 48.9877 34.2082ZM32.5256 28.6939H23.4607C23.2261 28.6939 23.0358 28.5037 23.0358 28.269V17.2327C23.0358 16.998 23.2261 16.8078 23.4607 16.8078H32.5256C37.2545 16.8078 39.6189 18.8208 39.6189 22.8467C39.6189 26.7449 37.2545 28.6939 32.5256 28.6939ZM41.0568 48.3444C41.0568 52.3065 38.6923 54.2875 33.9634 54.2875H23.4607C23.2261 54.2875 23.0358 54.0973 23.0358 53.8626V42.4428C23.0358 42.2081 23.2261 42.0179 23.4607 42.0179H33.8676C36.1681 42.0179 37.9255 42.5611 39.1396 43.6475C40.4177 44.7338 41.0568 46.2995 41.0568 48.3444ZM82.9785 23.3974C83.1065 23.0084 83.6565 23.0077 83.7854 23.3964L90.5281 43.7176L92.1032 48.5978C92.1254 48.6664 92.0742 48.7366 92.0022 48.7366H74.6911C74.618 48.7366 74.5667 48.6645 74.5908 48.5954L76.2942 43.7176L82.9785 23.3974Z" fill="#CECECE"/>
<path fill-rule="evenodd" clip-rule="evenodd" d="M142.406 69.4327C142.25 69.4327 142.106 69.3469 142.032 69.2093L128.853 44.7336C128.779 44.596 128.635 44.5102 128.479 44.5102H127.145C126.91 44.5102 126.72 44.7004 126.72 44.9351V69.0078C126.72 69.2425 126.53 69.4327 126.295 69.4327H119.722C119.529 69.4327 119.36 69.3026 119.311 69.1159L101.769 2.38718C101.698 2.11778 101.901 1.85425 102.18 1.85425H137.551C142.983 1.85425 147.584 2.81281 151.355 4.72993C155.125 6.58315 157.969 9.17126 159.886 12.4943C161.803 15.7534 162.762 19.4279 162.762 23.5177C162.762 23.9918 162.748 24.46 162.721 24.9225C162.7 25.2807 162.283 25.4548 162.006 25.2269C161.94 25.1722 161.859 25.1379 161.774 25.1278L160.606 24.9907C160.516 24.9801 160.429 24.9534 160.349 24.9117L157.611 23.4862C157.559 23.4592 157.511 23.4262 157.467 23.3879L155.14 21.3664C155.081 21.3153 155.015 21.2737 154.943 21.2432L152.623 20.2591L146.216 17.0555L152.305 20.9847L155.459 22.5994C155.551 22.6467 155.633 22.7126 155.698 22.7931L156.692 24.0193C156.757 24.0998 156.838 24.1658 156.93 24.213L158.252 24.8893C158.373 24.9514 158.473 25.0478 158.54 25.1665C158.727 25.4983 158.613 25.919 158.283 26.1099L156.438 27.1781L159.761 25.7791C159.864 25.7359 159.975 25.7163 160.086 25.7217L160.958 25.764C161.146 25.7732 161.324 25.8535 161.455 25.9887L162.234 26.7912C162.397 26.9589 162.472 27.1937 162.432 27.424C161.902 30.4512 160.734 33.207 158.927 35.6914C158.721 35.9771 158.507 36.2559 158.284 36.528C158.24 36.5824 158.157 36.5821 158.112 36.5277C158.103 36.5163 158.096 36.5031 158.092 36.4889L156.938 32.6289L157.417 35.1239C157.475 35.4245 157.303 35.7217 157.013 35.8211C156.867 35.8715 156.707 35.8645 156.565 35.8018L144.941 30.6521L152.664 35.2166L157.283 37.3555C157.305 37.3655 157.324 37.3805 157.339 37.3992C157.387 37.4595 157.384 37.5463 157.33 37.6019C157.203 37.7331 157.075 37.8624 156.944 37.99C156.826 38.1048 156.668 38.1675 156.503 38.1675H156.259C155.981 38.1675 155.772 38.4211 155.825 38.6941C155.856 38.8527 155.798 39.0159 155.673 39.1173C153.671 40.7321 151.252 41.9971 148.416 42.9123C148.207 42.9797 147.812 43.1492 147.638 43.0146L146.146 41.8563C146.045 41.7785 145.927 41.7277 145.801 41.7086L145.578 41.6747C145.493 41.6617 145.41 41.634 145.335 41.5927L145.087 41.458C145.002 41.4119 144.91 41.3827 144.814 41.3721L143.878 41.2682C143.79 41.2585 143.705 41.2331 143.626 41.1934L143.15 40.9541L139.707 39.6561L133.84 37.6646L142.34 41.6532L144.386 42.6924C144.478 42.739 144.578 42.766 144.681 42.7718L145.51 42.8184C145.636 42.8255 145.759 42.8646 145.865 42.9321L147.281 43.8258C147.315 43.8474 147.347 43.8716 147.377 43.8984L148.686 45.0601C148.74 45.1077 148.8 45.1474 148.865 45.1777L149.004 45.2423C149.142 45.3067 149.257 45.412 149.333 45.5439L162.776 68.7952C162.94 69.0784 162.736 69.4327 162.409 69.4327H142.406ZM126.72 31.2406C126.72 31.4752 126.91 31.6655 127.145 31.6655H136.018C138.574 31.6655 140.491 31.0584 141.769 29.8442C143.047 28.63 143.686 26.8727 143.686 24.5721C143.686 22.3994 143.015 20.7059 141.673 19.4918C140.395 18.2137 138.51 17.5746 136.018 17.5746H127.145C126.91 17.5746 126.72 17.7649 126.72 17.9995V31.2406Z" fill="#CECECE"/>
</mask>
<g mask="url(#mask0_4642_6117)">
<g opacity="0.3" style="mix-blend-mode:overlay">
<rect x="-19.6152" y="54.51" width="109.289" height="24.3252" transform="rotate(-43.5403 -19.6152 54.51)" fill="url(#paint19_linear_4642_6117)"/>
</g>
<g opacity="0.25" style="mix-blend-mode:overlay">
<rect x="47.6895" y="71.7661" width="125.679" height="34.2659" transform="rotate(-43.5403 47.6895 71.7661)" fill="url(#paint20_linear_4642_6117)"/>
</g>
</g>
<path d="M142.122 69.2885L143.051 68.2026L161.932 69.3971C161.932 69.3971 143.595 69.4242 142.833 69.4242C142.071 69.4242 142.122 69.2885 142.122 69.2885Z" fill="#2B2B2B" fill-opacity="0.9"/>
<path d="M119.335 69.2885L120.263 68.2026L126.743 68.9825L126.345 69.3971C126.345 69.3971 120.808 69.4242 120.046 69.4242C119.284 69.4242 119.335 69.2885 119.335 69.2885Z" fill="#2B2B2B" fill-opacity="0.9"/>
<path d="M99.1458 69.2885L100.075 68.2026L118.637 68.9825L118.239 69.3971C118.239 69.3971 100.385 69.434 99.6231 69.434C98.8612 69.434 99.1458 69.2885 99.1458 69.2885Z" fill="#2B2B2B" fill-opacity="0.9"/>
<path d="M67.5495 69.2885L66.6208 68.2026L4.42687 68.9825L4.82521 69.3971C4.82521 69.3971 66.3103 69.434 67.0722 69.434C67.8341 69.434 67.5495 69.2885 67.5495 69.2885Z" fill="#2B2B2B" fill-opacity="0.9"/>
<path d="M71.375 58.4661H70.2597L66.7808 68.0793L67.8431 69.1415L69.3833 64.2287L71.375 58.4661Z" fill="url(#paint21_radial_4642_6117)" fill-opacity="0.5" style="mix-blend-mode:plus-lighter"/>
<path d="M95.332 58.4661H96.4474L100.032 68.159L98.9702 69.2743L97.3237 64.2287L95.332 58.4661Z" fill="url(#paint22_radial_4642_6117)" fill-opacity="0.5" style="mix-blend-mode:plus-lighter"/>
<defs>
<filter id="filter0_ddddddii_4642_6117" x="-0.000896454" y="1.85425" width="167.084" height="77.1385" filterUnits="userSpaceOnUse" color-interpolation-filters="sRGB">
<feFlood flood-opacity="0" result="BackgroundImageFix"/>
<feColorMatrix in="SourceAlpha" type="matrix" values="0 0 0 0 0 0 0 0 0 0 0 0 0 0 0 0 0 0 127 0" result="hardAlpha"/>
<feOffset dy="0.146974"/>
<feGaussianBlur stdDeviation="0.0587896"/>
<feColorMatrix type="matrix" values="0 0 0 0 0 0 0 0 0 0 0 0 0 0 0 0 0 0 0.48 0"/>
<feBlend mode="normal" in2="BackgroundImageFix" result="effect1_dropShadow_4642_6117"/>
<feColorMatrix in="SourceAlpha" type="matrix" values="0 0 0 0 0 0 0 0 0 0 0 0 0 0 0 0 0 0 127 0" result="hardAlpha"/>
<feOffset dy="0.353199"/>
<feGaussianBlur stdDeviation="0.14128"/>
<feColorMatrix type="matrix" values="0 0 0 0 0 0 0 0 0 0 0 0 0 0 0 0 0 0 0.34505 0"/>
<feBlend mode="normal" in2="effect1_dropShadow_4642_6117" result="effect2_dropShadow_4642_6117"/>
<feColorMatrix in="SourceAlpha" type="matrix" values="0 0 0 0 0 0 0 0 0 0 0 0 0 0 0 0 0 0 127 0" result="hardAlpha"/>
<feOffset dy="0.665042"/>
<feGaussianBlur stdDeviation="0.266017"/>
<feColorMatrix type="matrix" values="0 0 0 0 0 0 0 0 0 0 0 0 0 0 0 0 0 0 0.286131 0"/>
<feBlend mode="normal" in2="effect2_dropShadow_4642_6117" result="effect3_dropShadow_4642_6117"/>
<feColorMatrix in="SourceAlpha" type="matrix" values="0 0 0 0 0 0 0 0 0 0 0 0 0 0 0 0 0 0 127 0" result="hardAlpha"/>
<feOffset dy="1.18632"/>
<feGaussianBlur stdDeviation="0.474528"/>
<feColorMatrix type="matrix" values="0 0 0 0 0 0 0 0 0 0 0 0 0 0 0 0 0 0 0.24 0"/>
<feBlend mode="normal" in2="effect3_dropShadow_4642_6117" result="effect4_dropShadow_4642_6117"/>
<feColorMatrix in="SourceAlpha" type="matrix" values="0 0 0 0 0 0 0 0 0 0 0 0 0 0 0 0 0 0 127 0" result="hardAlpha"/>
<feOffset dy="2.21888"/>
<feGaussianBlur stdDeviation="0.887553"/>
<feColorMatrix type="matrix" values="0 0 0 0 0 0 0 0 0 0 0 0 0 0 0 0 0 0 0.193869 0"/>
<feBlend mode="normal" in2="effect4_dropShadow_4642_6117" result="effect5_dropShadow_4642_6117"/>
<feColorMatrix in="SourceAlpha" type="matrix" values="0 0 0 0 0 0 0 0 0 0 0 0 0 0 0 0 0 0 127 0" result="hardAlpha"/>
<feOffset dy="5.31118"/>
<feGaussianBlur stdDeviation="2.12447"/>
<feColorMatrix type="matrix" values="0 0 0 0 0 0 0 0 0 0 0 0 0 0 0 0 0 0 0.13495 0"/>
<feBlend mode="normal" in2="effect5_dropShadow_4642_6117" result="effect6_dropShadow_4642_6117"/>
<feBlend mode="normal" in="SourceGraphic" in2="effect6_dropShadow_4642_6117" result="shape"/>
<feColorMatrix in="SourceAlpha" type="matrix" values="0 0 0 0 0 0 0 0 0 0 0 0 0 0 0 0 0 0 127 0" result="hardAlpha"/>
<feOffset/>
<feGaussianBlur stdDeviation="0.0132779"/>
<feComposite in2="hardAlpha" operator="arithmetic" k2="-1" k3="1"/>
<feColorMatrix type="matrix" values="0 0 0 0 0.799583 0 0 0 0 0.826364 0 0 0 0 0.841667 0 0 0 1 0"/>
<feBlend mode="normal" in2="shape" result="effect7_innerShadow_4642_6117"/>
<feColorMatrix in="SourceAlpha" type="matrix" values="0 0 0 0 0 0 0 0 0 0 0 0 0 0 0 0 0 0 127 0" result="hardAlpha"/>
<feOffset dy="0.212447"/>
<feGaussianBlur stdDeviation="0.0531118"/>
<feComposite in2="hardAlpha" operator="arithmetic" k2="-1" k3="1"/>
<feColorMatrix type="matrix" values="0 0 0 0 1 0 0 0 0 1 0 0 0 0 1 0 0 0 0.25 0"/>
<feBlend mode="normal" in2="effect7_innerShadow_4642_6117" result="effect8_innerShadow_4642_6117"/>
</filter>
<filter id="filter1_f_4642_6117" x="52.8303" y="-1.3113e-05" width="22.0093" height="52.4617" filterUnits="userSpaceOnUse" color-interpolation-filters="sRGB">
<feFlood flood-opacity="0" result="BackgroundImageFix"/>
<feBlend mode="normal" in="SourceGraphic" in2="BackgroundImageFix" result="shape"/>
<feGaussianBlur stdDeviation="0.464728" result="effect1_foregroundBlur_4642_6117"/>
</filter>
<filter id="filter2_f_4642_6117" x="92.0862" y="0.55028" width="23.4507" height="57.0293" filterUnits="userSpaceOnUse" color-interpolation-filters="sRGB">
<feFlood flood-opacity="0" result="BackgroundImageFix"/>
<feBlend mode="normal" in="SourceGraphic" in2="BackgroundImageFix" result="shape"/>
<feGaussianBlur stdDeviation="0.464728" result="effect1_foregroundBlur_4642_6117"/>
</filter>
<linearGradient id="paint0_linear_4642_6117" x1="85.1373" y1="1.86556" x2="91.4422" y2="76.542" gradientUnits="userSpaceOnUse">
<stop stop-color="#F1F1F1" stop-opacity="0.91"/>
<stop offset="0.0857143" stop-color="white"/>
<stop offset="0.660774" stop-color="#8E8E8E" stop-opacity="0.13"/>
<stop offset="0.829297" stop-color="#232222" stop-opacity="0.82"/>
</linearGradient>
<radialGradient id="paint1_radial_4642_6117" cx="0" cy="0" r="1" gradientUnits="userSpaceOnUse" gradientTransform="translate(83.5483 56.3582) rotate(-90) scale(26.3434 264.585)">
<stop offset="0.145" stop-color="white"/>
<stop offset="1" stop-opacity="0"/>
</radialGradient>
<linearGradient id="paint2_linear_4642_6117" x1="84.0921" y1="23.5506" x2="90.7045" y2="43.4409" gradientUnits="userSpaceOnUse">
<stop stop-color="#B87E28" stop-opacity="0"/>
<stop offset="0.470287" stop-color="#DBA927"/>
<stop offset="0.836531" stop-color="#D7A327" stop-opacity="0.880201"/>
<stop offset="1" stop-color="#B87E28" stop-opacity="0"/>
</linearGradient>
<linearGradient id="paint3_linear_4642_6117" x1="82.693" y1="23.5506" x2="76.0806" y2="43.4409" gradientUnits="userSpaceOnUse">
<stop stop-color="#B87E28" stop-opacity="0"/>
<stop offset="0.470287" stop-color="#DBA927"/>
<stop offset="0.836531" stop-color="#D7A327" stop-opacity="0.880201"/>
<stop offset="1" stop-color="#B87E28" stop-opacity="0"/>
</linearGradient>
<radialGradient id="paint4_radial_4642_6117" cx="0" cy="0" r="1" gradientTransform="matrix(-8.23422 1.48071 -10.2612 -30.5613 57.8068 31.1034)" gradientUnits="userSpaceOnUse">
<stop offset="0.06" stop-color="#E6CA82"/>
<stop offset="1" stop-color="#EDE7E0" stop-opacity="0"/>
</radialGradient>
<radialGradient id="paint5_radial_4642_6117" cx="0" cy="0" r="1" gradientUnits="userSpaceOnUse" gradientTransform="translate(63.1679 25.6448) rotate(-38.1263) scale(20.1064 20.1064)">
<stop stop-color="#EEBA34"/>
<stop offset="1" stop-color="#81614F" stop-opacity="0"/>
</radialGradient>
<radialGradient id="paint6_radial_4642_6117" cx="0" cy="0" r="1" gradientUnits="userSpaceOnUse" gradientTransform="translate(63.1679 25.6448) rotate(-38.1263) scale(20.1064 20.1064)">
<stop stop-color="#EEBA34"/>
<stop offset="1" stop-color="#81614F" stop-opacity="0"/>
</radialGradient>
<radialGradient id="paint7_radial_4642_6117" cx="0" cy="0" r="1" gradientUnits="userSpaceOnUse" gradientTransform="translate(63.1679 25.6448) rotate(-38.1263) scale(20.1064 20.1064)">
<stop stop-color="#EEBA34"/>
<stop offset="1" stop-color="#81614F" stop-opacity="0"/>
</radialGradient>
<radialGradient id="paint8_radial_4642_6117" cx="0" cy="0" r="1" gradientUnits="userSpaceOnUse" gradientTransform="translate(104.54 28.4291) rotate(-141.649) scale(21.9166 21.9166)">
<stop stop-color="#EEBA34"/>
<stop offset="1" stop-color="#81614F" stop-opacity="0"/>
</radialGradient>
<radialGradient id="paint9_radial_4642_6117" cx="0" cy="0" r="1" gradientUnits="userSpaceOnUse" gradientTransform="translate(104.54 28.4291) rotate(-141.649) scale(21.9166 21.9166)">
<stop stop-color="#EEBA34"/>
<stop offset="1" stop-color="#81614F" stop-opacity="0"/>
</radialGradient>
<radialGradient id="paint10_radial_4642_6117" cx="0" cy="0" r="1" gradientUnits="userSpaceOnUse" gradientTransform="translate(104.54 28.4291) rotate(-141.649) scale(21.9166 21.9166)">
<stop stop-color="#EEBA34"/>
<stop offset="1" stop-color="#81614F" stop-opacity="0"/>
</radialGradient>
<radialGradient id="paint11_radial_4642_6117" cx="0" cy="0" r="1" gradientUnits="userSpaceOnUse" gradientTransform="translate(110.732 42.9993) rotate(167) scale(8.20491 63.8113)">
<stop stop-color="#E4E4E4"/>
<stop offset="1" stop-color="#737373" stop-opacity="0"/>
</radialGradient>
<radialGradient id="paint12_radial_4642_6117" cx="0" cy="0" r="1" gradientUnits="userSpaceOnUse" gradientTransform="translate(131.263 43.3725) rotate(162.093) scale(8.20491 63.8113)">
<stop stop-color="#E4E4E4"/>
<stop offset="1" stop-color="#737373" stop-opacity="0"/>
</radialGradient>
<radialGradient id="paint13_radial_4642_6117" cx="0" cy="0" r="1" gradientUnits="userSpaceOnUse" gradientTransform="translate(78.3313 40.3984) rotate(19.7223) scale(4.48551 20.6088)">
<stop stop-color="#E4E4E4"/>
<stop offset="1" stop-color="#737373" stop-opacity="0"/>
</radialGradient>
<radialGradient id="paint14_radial_4642_6117" cx="0" cy="0" r="1" gradientUnits="userSpaceOnUse" gradientTransform="translate(52.9205 49.4265) rotate(24.3765) scale(5.59775 25.4187)">
<stop stop-color="#E4E4E4"/>
<stop offset="1" stop-color="#737373" stop-opacity="0"/>
</radialGradient>
<radialGradient id="paint15_radial_4642_6117" cx="0" cy="0" r="1" gradientUnits="userSpaceOnUse" gradientTransform="translate(56.0545 38.9377) rotate(-175.764) scale(8.62768 8.14157)">
<stop stop-color="#B7B7B7"/>
<stop offset="1" stop-color="#969696" stop-opacity="0.7"/>
</radialGradient>
<radialGradient id="paint16_radial_4642_6117" cx="0" cy="0" r="1" gradientUnits="userSpaceOnUse" gradientTransform="translate(23.0527 48.2848) rotate(3.12893) scale(1.65652 8.74159)">
<stop stop-color="#E4E4E4"/>
<stop offset="1" stop-color="#737373" stop-opacity="0"/>
</radialGradient>
<radialGradient id="paint17_radial_4642_6117" cx="0" cy="0" r="1" gradientUnits="userSpaceOnUse" gradientTransform="translate(23.0527 22.7921) rotate(3.12893) scale(1.65652 8.74159)">
<stop stop-color="#E4E4E4"/>
<stop offset="1" stop-color="#737373" stop-opacity="0"/>
</radialGradient>
<radialGradient id="paint18_radial_4642_6117" cx="0" cy="0" r="1" gradientTransform="matrix(-4.26547 1.51369 -7.02566 -19.3999 88.5222 40.3984)" gradientUnits="userSpaceOnUse">
<stop stop-color="#E4E4E4"/>
<stop offset="1" stop-color="#737373" stop-opacity="0"/>
</radialGradient>
<linearGradient id="paint19_linear_4642_6117" x1="30.5717" y1="55.0051" x2="31.1086" y2="79.5359" gradientUnits="userSpaceOnUse">
<stop stop-color="#D9D9D9" stop-opacity="0"/>
<stop offset="0.375" stop-color="white"/>
<stop offset="0.655" stop-color="#9B9B9B"/>
<stop offset="0.86" stop-color="#B9B9B9"/>
<stop offset="0.985" stop-color="#757575" stop-opacity="0"/>
</linearGradient>
<linearGradient id="paint20_linear_4642_6117" x1="105.403" y1="72.4635" x2="106.329" y2="107.011" gradientUnits="userSpaceOnUse">
<stop stop-color="#D9D9D9" stop-opacity="0"/>
<stop offset="0.375" stop-color="white"/>
<stop offset="0.655" stop-color="#9B9B9B"/>
<stop offset="0.86" stop-color="#B9B9B9"/>
<stop offset="0.985" stop-color="#757575" stop-opacity="0"/>
</linearGradient>
<radialGradient id="paint21_radial_4642_6117" cx="0" cy="0" r="1" gradientUnits="userSpaceOnUse" gradientTransform="translate(72.8356 60.0594) rotate(0.855092) scale(7.11777 32.7028)">
<stop stop-color="#E4E4E4"/>
<stop offset="1" stop-color="#737373" stop-opacity="0"/>
</radialGradient>
<radialGradient id="paint22_radial_4642_6117" cx="0" cy="0" r="1" gradientUnits="userSpaceOnUse" gradientTransform="translate(93.8715 60.0594) rotate(179.145) scale(7.11777 32.7028)">
<stop stop-color="#E4E4E4"/>
<stop offset="1" stop-color="#737373" stop-opacity="0"/>
</radialGradient>
</defs>
</svg>
