<svg width="278" height="73" viewBox="0 0 278 73" fill="none" xmlns="http://www.w3.org/2000/svg">
<g filter="url(#filter0_ddddddi_4642_6157)">
<path d="M36.8831 64.44C32.0831 64.44 27.6431 63.66 23.5631 62.1C19.5431 60.48 16.0331 58.23 13.0331 55.35C10.0931 52.41 7.78309 48.99 6.10309 45.09C4.42309 41.19 3.58309 36.9 3.58309 32.22C3.58309 27.54 4.42309 23.25 6.10309 19.35C7.78309 15.45 10.1231 12.06 13.1231 9.17997C16.1231 6.23997 19.6331 3.98997 23.6531 2.42997C27.7331 0.809969 32.1731 -2.96831e-05 36.9731 -2.96831e-05C41.8331 -2.96831e-05 46.3031 0.83997 50.3831 2.51997C54.5231 4.13997 58.0331 6.56997 60.9131 9.80997L55.0631 15.48C52.6631 12.96 49.9631 11.1 46.9631 9.89997C43.9631 8.63997 40.7531 8.00997 37.3331 8.00997C33.7931 8.00997 30.4931 8.60997 27.4331 9.80997C24.4331 11.01 21.8231 12.69 19.6031 14.85C17.3831 17.01 15.6431 19.59 14.3831 22.59C13.1831 25.53 12.5831 28.74 12.5831 32.22C12.5831 35.7 13.1831 38.94 14.3831 41.94C15.6431 44.88 17.3831 47.43 19.6031 49.59C21.8231 51.75 24.4331 53.43 27.4331 54.63C30.4931 55.83 33.7931 56.43 37.3331 56.43C40.7531 56.43 43.9631 55.83 46.9631 54.63C49.9631 53.37 52.6631 51.45 55.0631 48.87L60.9131 54.54C58.0331 57.78 54.5231 60.24 50.3831 61.92C46.3031 63.6 41.8031 64.44 36.8831 64.44ZM139.002 64.44C130.722 64.44 124.212 62.07 119.472 57.33C114.732 52.59 112.362 45.66 112.362 36.54V0.719966H121.362V36.18C121.362 43.2 122.892 48.33 125.952 51.57C129.072 54.81 133.452 56.43 139.092 56.43C144.792 56.43 149.172 54.81 152.232 51.57C155.352 48.33 156.912 43.2 156.912 36.18V0.719966H165.642V36.54C165.642 45.66 163.272 52.59 158.532 57.33C153.852 62.07 147.342 64.44 139.002 64.44ZM223.244 63.72V0.719966H247.814C253.334 0.719966 258.044 1.58997 261.944 3.32997C265.844 5.06997 268.844 7.58997 270.944 10.89C273.044 14.19 274.094 18.12 274.094 22.68C274.094 27.24 273.044 31.17 270.944 34.47C268.844 37.71 265.844 40.23 261.944 42.03C258.044 43.77 253.334 44.64 247.814 44.64H228.194L232.244 40.41V63.72H223.244ZM232.244 41.31L228.194 36.81H247.544C253.304 36.81 257.654 35.58 260.594 33.12C263.594 30.66 265.094 27.18 265.094 22.68C265.094 18.18 263.594 14.7 260.594 12.24C257.654 9.77997 253.304 8.54997 247.544 8.54997H228.194L232.244 4.04997V41.31Z" fill="#737373"/>
<path d="M36.8831 64.44C32.0831 64.44 27.6431 63.66 23.5631 62.1C19.5431 60.48 16.0331 58.23 13.0331 55.35C10.0931 52.41 7.78309 48.99 6.10309 45.09C4.42309 41.19 3.58309 36.9 3.58309 32.22C3.58309 27.54 4.42309 23.25 6.10309 19.35C7.78309 15.45 10.1231 12.06 13.1231 9.17997C16.1231 6.23997 19.6331 3.98997 23.6531 2.42997C27.7331 0.809969 32.1731 -2.96831e-05 36.9731 -2.96831e-05C41.8331 -2.96831e-05 46.3031 0.83997 50.3831 2.51997C54.5231 4.13997 58.0331 6.56997 60.9131 9.80997L55.0631 15.48C52.6631 12.96 49.9631 11.1 46.9631 9.89997C43.9631 8.63997 40.7531 8.00997 37.3331 8.00997C33.7931 8.00997 30.4931 8.60997 27.4331 9.80997C24.4331 11.01 21.8231 12.69 19.6031 14.85C17.3831 17.01 15.6431 19.59 14.3831 22.59C13.1831 25.53 12.5831 28.74 12.5831 32.22C12.5831 35.7 13.1831 38.94 14.3831 41.94C15.6431 44.88 17.3831 47.43 19.6031 49.59C21.8231 51.75 24.4331 53.43 27.4331 54.63C30.4931 55.83 33.7931 56.43 37.3331 56.43C40.7531 56.43 43.9631 55.83 46.9631 54.63C49.9631 53.37 52.6631 51.45 55.0631 48.87L60.9131 54.54C58.0331 57.78 54.5231 60.24 50.3831 61.92C46.3031 63.6 41.8031 64.44 36.8831 64.44ZM139.002 64.44C130.722 64.44 124.212 62.07 119.472 57.33C114.732 52.59 112.362 45.66 112.362 36.54V0.719966H121.362V36.18C121.362 43.2 122.892 48.33 125.952 51.57C129.072 54.81 133.452 56.43 139.092 56.43C144.792 56.43 149.172 54.81 152.232 51.57C155.352 48.33 156.912 43.2 156.912 36.18V0.719966H165.642V36.54C165.642 45.66 163.272 52.59 158.532 57.33C153.852 62.07 147.342 64.44 139.002 64.44ZM223.244 63.72V0.719966H247.814C253.334 0.719966 258.044 1.58997 261.944 3.32997C265.844 5.06997 268.844 7.58997 270.944 10.89C273.044 14.19 274.094 18.12 274.094 22.68C274.094 27.24 273.044 31.17 270.944 34.47C268.844 37.71 265.844 40.23 261.944 42.03C258.044 43.77 253.334 44.64 247.814 44.64H228.194L232.244 40.41V63.72H223.244ZM232.244 41.31L228.194 36.81H247.544C253.304 36.81 257.654 35.58 260.594 33.12C263.594 30.66 265.094 27.18 265.094 22.68C265.094 18.18 263.594 14.7 260.594 12.24C257.654 9.77997 253.304 8.54997 247.544 8.54997H228.194L232.244 4.04997V41.31Z" fill="url(#paint0_linear_4642_6157)" fill-opacity="0.46" style="mix-blend-mode:overlay"/>
<path d="M36.8831 64.44C32.0831 64.44 27.6431 63.66 23.5631 62.1C19.5431 60.48 16.0331 58.23 13.0331 55.35C10.0931 52.41 7.78309 48.99 6.10309 45.09C4.42309 41.19 3.58309 36.9 3.58309 32.22C3.58309 27.54 4.42309 23.25 6.10309 19.35C7.78309 15.45 10.1231 12.06 13.1231 9.17997C16.1231 6.23997 19.6331 3.98997 23.6531 2.42997C27.7331 0.809969 32.1731 -2.96831e-05 36.9731 -2.96831e-05C41.8331 -2.96831e-05 46.3031 0.83997 50.3831 2.51997C54.5231 4.13997 58.0331 6.56997 60.9131 9.80997L55.0631 15.48C52.6631 12.96 49.9631 11.1 46.9631 9.89997C43.9631 8.63997 40.7531 8.00997 37.3331 8.00997C33.7931 8.00997 30.4931 8.60997 27.4331 9.80997C24.4331 11.01 21.8231 12.69 19.6031 14.85C17.3831 17.01 15.6431 19.59 14.3831 22.59C13.1831 25.53 12.5831 28.74 12.5831 32.22C12.5831 35.7 13.1831 38.94 14.3831 41.94C15.6431 44.88 17.3831 47.43 19.6031 49.59C21.8231 51.75 24.4331 53.43 27.4331 54.63C30.4931 55.83 33.7931 56.43 37.3331 56.43C40.7531 56.43 43.9631 55.83 46.9631 54.63C49.9631 53.37 52.6631 51.45 55.0631 48.87L60.9131 54.54C58.0331 57.78 54.5231 60.24 50.3831 61.92C46.3031 63.6 41.8031 64.44 36.8831 64.44ZM139.002 64.44C130.722 64.44 124.212 62.07 119.472 57.33C114.732 52.59 112.362 45.66 112.362 36.54V0.719966H121.362V36.18C121.362 43.2 122.892 48.33 125.952 51.57C129.072 54.81 133.452 56.43 139.092 56.43C144.792 56.43 149.172 54.81 152.232 51.57C155.352 48.33 156.912 43.2 156.912 36.18V0.719966H165.642V36.54C165.642 45.66 163.272 52.59 158.532 57.33C153.852 62.07 147.342 64.44 139.002 64.44ZM223.244 63.72V0.719966H247.814C253.334 0.719966 258.044 1.58997 261.944 3.32997C265.844 5.06997 268.844 7.58997 270.944 10.89C273.044 14.19 274.094 18.12 274.094 22.68C274.094 27.24 273.044 31.17 270.944 34.47C268.844 37.71 265.844 40.23 261.944 42.03C258.044 43.77 253.334 44.64 247.814 44.64H228.194L232.244 40.41V63.72H223.244ZM232.244 41.31L228.194 36.81H247.544C253.304 36.81 257.654 35.58 260.594 33.12C263.594 30.66 265.094 27.18 265.094 22.68C265.094 18.18 263.594 14.7 260.594 12.24C257.654 9.77997 253.304 8.54997 247.544 8.54997H228.194L232.244 4.04997V41.31Z" fill="url(#paint1_radial_4642_6157)" fill-opacity="0.2" style="mix-blend-mode:lighten"/>
</g>
<defs>
<filter id="filter0_ddddddi_4642_6157" x="0.000415325" y="0" width="277.677" height="72.503" filterUnits="userSpaceOnUse" color-interpolation-filters="sRGB">
<feFlood flood-opacity="0" result="BackgroundImageFix"/>
<feColorMatrix in="SourceAlpha" type="matrix" values="0 0 0 0 0 0 0 0 0 0 0 0 0 0 0 0 0 0 127 0" result="hardAlpha"/>
<feOffset dy="0.123958"/>
<feGaussianBlur stdDeviation="0.0495833"/>
<feColorMatrix type="matrix" values="0 0 0 0 0 0 0 0 0 0 0 0 0 0 0 0 0 0 0.48 0"/>
<feBlend mode="normal" in2="BackgroundImageFix" result="effect1_dropShadow_4642_6157"/>
<feColorMatrix in="SourceAlpha" type="matrix" values="0 0 0 0 0 0 0 0 0 0 0 0 0 0 0 0 0 0 127 0" result="hardAlpha"/>
<feOffset dy="0.297889"/>
<feGaussianBlur stdDeviation="0.119156"/>
<feColorMatrix type="matrix" values="0 0 0 0 0 0 0 0 0 0 0 0 0 0 0 0 0 0 0.34505 0"/>
<feBlend mode="normal" in2="effect1_dropShadow_4642_6157" result="effect2_dropShadow_4642_6157"/>
<feColorMatrix in="SourceAlpha" type="matrix" values="0 0 0 0 0 0 0 0 0 0 0 0 0 0 0 0 0 0 127 0" result="hardAlpha"/>
<feOffset dy="0.560898"/>
<feGaussianBlur stdDeviation="0.224359"/>
<feColorMatrix type="matrix" values="0 0 0 0 0 0 0 0 0 0 0 0 0 0 0 0 0 0 0.286131 0"/>
<feBlend mode="normal" in2="effect2_dropShadow_4642_6157" result="effect3_dropShadow_4642_6157"/>
<feColorMatrix in="SourceAlpha" type="matrix" values="0 0 0 0 0 0 0 0 0 0 0 0 0 0 0 0 0 0 127 0" result="hardAlpha"/>
<feOffset dy="1.00055"/>
<feGaussianBlur stdDeviation="0.400218"/>
<feColorMatrix type="matrix" values="0 0 0 0 0 0 0 0 0 0 0 0 0 0 0 0 0 0 0.24 0"/>
<feBlend mode="normal" in2="effect3_dropShadow_4642_6157" result="effect4_dropShadow_4642_6157"/>
<feColorMatrix in="SourceAlpha" type="matrix" values="0 0 0 0 0 0 0 0 0 0 0 0 0 0 0 0 0 0 127 0" result="hardAlpha"/>
<feOffset dy="1.87141"/>
<feGaussianBlur stdDeviation="0.748565"/>
<feColorMatrix type="matrix" values="0 0 0 0 0 0 0 0 0 0 0 0 0 0 0 0 0 0 0.193869 0"/>
<feBlend mode="normal" in2="effect4_dropShadow_4642_6157" result="effect5_dropShadow_4642_6157"/>
<feColorMatrix in="SourceAlpha" type="matrix" values="0 0 0 0 0 0 0 0 0 0 0 0 0 0 0 0 0 0 127 0" result="hardAlpha"/>
<feOffset dy="4.47946"/>
<feGaussianBlur stdDeviation="1.79178"/>
<feColorMatrix type="matrix" values="0 0 0 0 0 0 0 0 0 0 0 0 0 0 0 0 0 0 0.13495 0"/>
<feBlend mode="normal" in2="effect5_dropShadow_4642_6157" result="effect6_dropShadow_4642_6157"/>
<feBlend mode="normal" in="SourceGraphic" in2="effect6_dropShadow_4642_6157" result="shape"/>
<feColorMatrix in="SourceAlpha" type="matrix" values="0 0 0 0 0 0 0 0 0 0 0 0 0 0 0 0 0 0 127 0" result="hardAlpha"/>
<feOffset/>
<feGaussianBlur stdDeviation="0.0111987"/>
<feComposite in2="hardAlpha" operator="arithmetic" k2="-1" k3="1"/>
<feColorMatrix type="matrix" values="0 0 0 0 0.799583 0 0 0 0 0.826364 0 0 0 0 0.841667 0 0 0 1 0"/>
<feBlend mode="normal" in2="shape" result="effect7_innerShadow_4642_6157"/>
</filter>
<linearGradient id="paint0_linear_4642_6157" x1="195.387" y1="7.00924" x2="176.488" y2="102.886" gradientUnits="userSpaceOnUse">
<stop stop-color="#F1F1F1" stop-opacity="0.91"/>
<stop offset="0.227258" stop-color="white"/>
<stop offset="0.660774" stop-color="#8E8E8E" stop-opacity="0.13"/>
<stop offset="0.829297" stop-color="#232222" stop-opacity="0.82"/>
</linearGradient>
<radialGradient id="paint1_radial_4642_6157" cx="0" cy="0" r="1" gradientUnits="userSpaceOnUse" gradientTransform="translate(139.017 65.438) rotate(-90) scale(42.8802 467.152)">
<stop offset="0.145" stop-color="white"/>
<stop offset="1" stop-opacity="0"/>
</radialGradient>
</defs>
</svg>
